<?xml version="1.0" encoding="UTF-8"?>
<svg id="Layer_1" xmlns="http://www.w3.org/2000/svg" version="1.1" viewBox="0 0 64 80">
  <!-- Generator: Adobe Illustrator 29.1.0, SVG Export Plug-In . SVG Version: 2.1.0 Build 142)  -->
  <path d="M45,29.8c.5-.2.9-.8.9-1.3s-.2-.9-.6-1.1c-.1,0-.3-.2-.4-.2l-1.6,2.9,1.6-.3Z"/>
  <path d="M17.7,22.4l1.1,2.9,3.4-2.4c.2-.1.4-.2.6-.2s.2,0,.3,0l2.5.9c.3.1.5.3.6.6s0,.6,0,.8l-3.2,5.4c-.4.7-.5,1.5-.2,2.2s.9,1.3,1.6,1.5l2.8.8c1.1.3,2.3-.1,2.9-1.1l3.3-5.4c.3-.5.9-.6,1.3-.4l4.7,2.6,1.5-.2,1.6-3-1.7.4c-.2,0-.4,0-.6,0l-18.6-7.6-3.9,2.1Z"/>
  <path d="M26.7,37l-2.8-.8c-.9-.3-1.7-.8-2.3-1.6l-2,5.2c0,.2-.2.4-.4.5l-6.1,3.5,2,4.2c.3-.6.3-1.2.2-1.7,0,0,0,0,0,0-.1-.7-.5-1.3-.6-1.4-.3-.5-.2-1.1.2-1.4.4-.3,1.1-.2,1.4.2.1.2.3.5.4.7l4.6-3.5,2-2.5c.2-.2.5-.3.8-.4.3,0,.6.1.8.4l2.3,2.9c.2.3.3.6.2.9l-2.3,8.3h5.5c-.1-.2-.2-.4-.4-.6-.7-.6-1.7-.5-1.7-.5-.5,0-1-.3-1.1-.9s.3-1,.9-1.1c0,0,.1,0,.3,0l2.2-6.2-1.8-4.3c-.4,0-.7.1-1.1.1s-.8,0-1.2-.2Z"/>
  <path d="M15.8,23.5c-.8.4-1.1,1.4-.7,2.1.2.4.6.8,1.1.9.3,0,.6,0,.9,0l-1.2-3.1h-.1Z"/>
  <circle cx="33.2" cy="20.6" r="2.9"/>
  <path d="M46.7,46c-.2.2-.4.4-.7.4-.3,0-.6,0-.8-.3l-1.6-1.5-1.3,3.9h11.4l-1.3-10.8-5.7,8.2Z"/>
  <path d="M19.2,30.2c-.4,0-.8-.2-.9-.6l-7.5-19.5c-.2-.5,0-1.1.6-1.3.5-.2,1.1,0,1.3.6l7.5,19.5c.2.5,0,1.1-.6,1.3-.1,0-.2,0-.4,0Z"/>
  <path d="M35.5,43.8c-.2,0-.3,0-.5-.1-.5-.3-.7-.9-.4-1.4l10.9-20.6c.3-.5.9-.7,1.4-.4.5.3.7.9.4,1.4l-10.9,20.6c-.2.3-.5.5-.9.5Z"/>
  <path d="M31.8,55.3h-8.3c-.6,0-1-.4-1-1s.4-1,1-1h8.3c.5,0,.9-.2,1.2-.5.3-.3.5-.8.5-1.2,0-.5-.1-1.1-.3-1.5-.2-.5.1-1.1.7-1.3.5-.2,1.1.1,1.3.7.2.6.3,1.3.3,2.1,0,1-.3,1.9-1,2.7-.7.7-1.6,1.1-2.6,1.1Z"/>
  <path d="M14.9,53.6c-.2,0-.5,0-.7,0-1.1-.2-2.1-1-2.5-2l-3.3-7c-.2-.5,0-1.1.5-1.3.5-.2,1.1,0,1.3.5l3.3,7c.2.5.6.8,1.1.9.5.1,1,0,1.4-.4.7-.6,1.2-1.3,1.5-2,.2-.5.8-.7,1.3-.5.5.2.7.8.5,1.3-.5,1-1.1,1.9-2.1,2.7-.7.6-1.5.9-2.4.9Z"/>
</svg>