<?xml version="1.0" encoding="UTF-8"?>
<svg id="Layer_1" xmlns="http://www.w3.org/2000/svg" version="1.1" viewBox="0 0 110 135">
  <!-- Generator: Adobe Illustrator 29.1.0, SVG Export Plug-In . SVG Version: 2.1.0 Build 142)  -->
  <path d="M99.5,47.5h-6.2c-1.9-6.4-7.8-11.1-14.8-11.1H31.5c-7,0-12.9,4.7-14.8,11.1h-6.2v19.5h5.6v.9c0,6.4,3.6,11.9,9.5,14.5,2.1.9,4.3,1.4,6.4,1.4,3.9,0,7.6-1.4,10.6-4.2l8.8-8.1c2-1.9,5.2-1.9,7.3,0l8.8,8.1c4.7,4.3,11.2,5.4,17,2.9,5.8-2.6,9.5-8.1,9.5-14.5v-.9h5.6v-19.5h0ZM88.4,67.8c0,4.9-3.2,8.1-6.1,9.4-3,1.3-7.4,1.5-11-1.9l-8.8-8.1c-.1-.1-.2-.2-.4-.3-1-.9-2.1-1.5-3.3-1.9,0,0,0,0-.1,0-.6-.2-1.1-.4-1.7-.5-.6-.1-1.3-.2-1.9-.2s-1.3,0-1.9.2c-.6.1-1.1.3-1.7.5,0,0,0,0-.1,0-1.3.5-2.6,1.2-3.7,2.2l-8.8,8.1c-3.6,3.3-8.1,3.1-11,1.9-3-1.3-6.1-4.4-6.1-9.4v-16.1c0-.8.1-1.5.3-2.2,0,0,0,0,0-.1.2-.7.4-1.3.7-2,1.6-3.3,4.9-5.6,8.8-5.6h47c3.9,0,7.2,2.3,8.8,5.6.3.6.5,1.3.7,2,0,0,0,0,0,.1.2.7.3,1.4.3,2.2v16.1h0Z"/>
  <path d="M79,44.7H31c-4.4,0-8,3.6-8,8v13.2c0,4.1,2.5,7.7,6.4,9.1,1.1.4,2.2.6,3.3.6,2.8,0,5.5-1.2,7.4-3.5l4.9-5.8c2.5-3,6.1-4.7,10-4.7s7.5,1.7,10,4.7l4.9,5.8c2.6,3.2,6.9,4.3,10.8,2.9,3.9-1.4,6.4-5,6.4-9.1v-13.2c0-4.4-3.6-8-8-8h0ZM84.2,65.9c0,3.6-2.4,5.7-4.6,6.5-2.2.8-5.4.7-7.7-2.1l-4.9-5.8c-3-3.6-7.4-5.7-12.1-5.7s-9.1,2.1-12.1,5.7l-4.9,5.8c-2.3,2.8-5.5,2.9-7.7,2.1-2.2-.8-4.6-2.9-4.6-6.5v-13.2c0-2.9,2.3-5.2,5.2-5.2h48c2.9,0,5.2,2.3,5.2,5.2v13.2h0Z"/>
  <path d="M37.1,52.3l-7.9,7.9c-.5.5-.5,1.4,0,2,.3.3.6.4,1,.4s.7-.1,1-.4l7.9-7.9c.5-.5.5-1.4,0-2-.5-.6-1.4-.5-2,0h0Z"/>
  <path d="M30.2,57c.4,0,.7-.1,1-.4l2.5-2.5c.5-.5.5-1.4,0-2-.5-.6-1.4-.5-2,0l-2.5,2.5c-.5.5-.5,1.4,0,2,.3.3.6.4,1,.4h0Z"/>
</svg>