<?xml version="1.0" encoding="UTF-8"?>
<svg id="Layer_1" xmlns="http://www.w3.org/2000/svg" version="1.1" xmlns:cc="http://creativecommons.org/ns#" xmlns:dc="http://purl.org/dc/elements/1.1/" xmlns:inkscape="http://www.inkscape.org/namespaces/inkscape" xmlns:rdf="http://www.w3.org/1999/02/22-rdf-syntax-ns#" xmlns:sodipodi="http://sodipodi.sourceforge.net/DTD/sodipodi-0.dtd" xmlns:svg="http://www.w3.org/2000/svg" viewBox="0 0 100 125">
  <!-- Generator: Adobe Illustrator 29.1.0, SVG Export Plug-In . SVG Version: 2.1.0 Build 142)  -->
  <path d="M19,27.9c-.3,0-.6.1-.8.3-.1.1-.2.2-.2.4H6.5v42.8h87V28.6h-11.5c0-.2-.2-.3-.3-.5-.2-.2-.4-.3-.7-.3-.3,0-.6.1-.8.3-.4.4-.4,1.1,0,1.4,0,0,.1.1.2.2,0,4.5-.8,14.7-5,19.8-5.5,6.5-11.5,10.3-23.4,10.3h-4.2c-11.9,0-17.9-3.8-23.4-10.3-4.2-5-4.9-15.3-5-19.8.1,0,.2-.1.3-.2.4-.4.4-1.1,0-1.4-.2-.2-.4-.3-.7-.3Z"/>
</svg>