<?xml version="1.0" encoding="UTF-8"?>
<svg id="Layer_1" xmlns="http://www.w3.org/2000/svg" version="1.1" viewBox="0 0 110 135">
  <!-- Generator: Adobe Illustrator 29.1.0, SVG Export Plug-In . SVG Version: 2.1.0 Build 142)  -->
  <defs>
    <style>
      .st0 {
        fill-rule: evenodd;
      }
    </style>
  </defs>
  <path class="st0" d="M91.1-16.4v-4.4c0-7.4-2.7-14.2-7.1-19.4l-2.6,2.6.5.6c.6.6.5,1.6,0,2.1-.6.6-1.6.5-2.1,0l-.5-.6-1.6,1.5.5.6c.6.6.5,1.6,0,2.1-.6.6-1.6.5-2.1,0l-.5-.6-1.3,1.2c-.6.6-1.6.5-2.1,0-.6-.6-.5-1.6,0-2.1l1.3-1.2-.5-.6c-.6-.6-.5-1.6,0-2.1.6-.6,1.6-.5,2.1,0l.5.6,1.6-1.5-.5-.6c-.6-.6-.5-1.6,0-2.1.6-.6,1.6-.5,2.1,0l.5.6,2.6-2.6c-2.1-2.1-4.6-3.8-7.2-5.2-4.6,5.8-11.7,9.6-19.7,9.6s-15.1-3.8-19.7-9.6c-9.7,5-16.4,15.2-16.4,26.8v4.4c0,.8.7,1.5,1.5,1.5h5.4l1.2-4.6-.8-.2c-.8-.2-1.3-1-1.1-1.8.2-.8,1-1.3,1.8-1.2l.8.2.5-2.2-.7-.2c-.8-.2-1.3-1-1.2-1.8.2-.8,1-1.3,1.8-1.2l.7.2.5-2.2-.7-.2c-.8-.2-1.3-1-1.2-1.8.2-.8,1-1.3,1.8-1.1l.7.2.4-1.7c.2-.8,1-1.3,1.8-1.2.8.2,1.3,1,1.2,1.8l-.4,1.7.8.2c.8.2,1.3,1,1.2,1.8-.2.8-1,1.3-1.8,1.2l-.8-.2-.5,2.2.7.2c.8.2,1.3,1,1.2,1.8-.2.8-1,1.3-1.8,1.1l-.7-.2-.5,2.2.8.2c.8.2,1.3,1,1.1,1.8-.2.8-1,1.3-1.8,1.2l-.7-.2-1,4h5.7v-11.1c0-.8.7-1.5,1.5-1.5s1.5.7,1.5,1.5v11.1h17.4s18.2,0,18.2,0v-11.1c0-.8.7-1.5,1.5-1.5s1.5.7,1.5,1.5v11.1h13.4c.8,0,1.5-.7,1.5-1.5h0ZM73.9-88.6v-7.1c0-.8-.7-1.5-1.5-1.5s-1.5.7-1.5,1.5v3.2c-.2-.2-.4-.4-.6-.6l-3.9,2.2,2.8,5.5c.4.8.2,1.7-.6,2.1l-8.4,4.3c-1.8.9-3.1-1.8-1.4-2.7l7-3.6-2.8-5.5c-.4-.7,0-1.6.7-2l4.1-2.4c-.5-.4-1-.7-1.6-1v-4.7c0-.8-.7-1.5-1.5-1.5s-1.5.7-1.5,1.5v3.2c-2.1-.9-4.4-1.4-6.7-1.6v-4.3c0-.8-.7-1.5-1.5-1.5s-1.5.7-1.5,1.5v4.3c-2.4.2-4.6.7-6.7,1.6v-3.2c0-.8-.7-1.5-1.5-1.5s-1.5.7-1.5,1.5v4.7c-1.7,1-3.3,2.3-4.6,3.7v-3.2c0-.8-.7-1.5-1.5-1.5s-1.5.7-1.5,1.5v7.1c-.6,1-1.1,2-1.5,3.1l4.8,2.8,3.3-5.2c.4-.7,1.3-1,2.1-.5l8,5c1.7,1.1,0,3.6-1.6,2.6l-6.7-4.2-3.3,5.2c-.4.7-1.4.9-2.1.5l-5.5-3.1c-.4,1.7-.6,3.4-.6,5.1v3h-.2c-3,0-5.5,2.5-5.5,5.5v4.1c0,3,2.5,5.5,5.5,5.5h.6c.7,3.9,2.3,7.6,4.8,10.5,4.2,4.9,10.3,7.8,16.8,7.8s12.7-3,16.8-7.8c2.6-3,4.2-6.7,4.8-10.5h.6c3,0,5.5-2.5,5.5-5.5v-4.1c0-3-2.5-5.5-5.5-5.5h-.2v-3c0-4.1-1.1-7.9-3.1-11.1h0ZM69-19.7c.5-.6.4-1.6-.2-2.1l-1.4-1.1.5-.6c.5-.6.4-1.6-.2-2.1-.6-.5-1.6-.4-2.1.2l-.5.6-1.8-1.4.5-.6c.5-.6.4-1.6-.2-2.1-.6-.5-1.6-.4-2.1.2l-.5.6-1.7-1.4.5-.6c.5-.6.4-1.6-.2-2.1-.6-.5-1.6-.4-2.1.2l-.5.6-1.4-1.1c-.6-.5-1.6-.4-2.1.2-.5.6-.4,1.6.2,2.1l1.4,1.1-.5.6c-.5.6-.4,1.6.2,2.1.6.5,1.6.4,2.1-.2l.5-.6,1.7,1.4-.5.6c-.5.6-.4,1.6.2,2.1.6.5,1.6.4,2.1-.2l.5-.6,1.7,1.4-.5.6c-.5.6-.4,1.6.2,2.1.6.5,1.6.4,2.1-.2l.5-.6,1.4,1.1c.6.5,1.6.4,2.1-.2h0ZM64.6-63.6c-3.7,0-6.7-3-6.7-6.7s3-6.7,6.7-6.7,6.7,3,6.7,6.7-3,6.7-6.7,6.7ZM64.6-71.7c.8,0,1.5.7,1.5,1.5s-.7,1.5-1.5,1.5-1.5-.7-1.5-1.5.7-1.5,1.5-1.5ZM64.6-73.9c-2,0-3.7,1.6-3.7,3.7s1.6,3.7,3.7,3.7,3.7-1.6,3.7-3.7-1.6-3.7-3.7-3.7ZM65-53.1c0-.8-.7-1.5-1.5-1.5h-1.8v-.8c0-.8-.7-1.5-1.5-1.5s-1.5.7-1.5,1.5v.8h-2.2v-.8c0-.8-.7-1.5-1.5-1.5s-1.5.7-1.5,1.5v.8h-2.2v-.8c0-.8-.7-1.5-1.5-1.5s-1.5.7-1.5,1.5v.8h-1.8c-.8,0-1.5.7-1.5,1.5s.7,1.5,1.5,1.5h1.8v.8c0,.8.7,1.5,1.5,1.5s1.5-.7,1.5-1.5v-.8h2.2v.8c0,.8.7,1.5,1.5,1.5s1.5-.7,1.5-1.5v-.8h2.2v.8c0,.8.7,1.5,1.5,1.5s1.5-.7,1.5-1.5v-.8h1.8c.8,0,1.5-.7,1.5-1.5ZM45.4-63.6c-3.7,0-6.7-3-6.7-6.7s3-6.7,6.7-6.7,6.7,3,6.7,6.7c0,3.7-3,6.7-6.7,6.7ZM49-69.8h-2.2c-.2.6-.8,1.1-1.4,1.1s-1.3-.5-1.5-1.1h-2.2c.2,1.8,1.8,3.3,3.7,3.3s3.5-1.4,3.6-3.3h0ZM42.8-72.8h5.2c-.7-.7-1.6-1.1-2.6-1.1-1,0-1.9.4-2.6,1.1ZM57-60.8l-1.4-2.4c-.4-.7-.2-1.6.6-2,.7-.4,1.6-.2,2,.6l1.4,2.4c.4.7.2,1.6-.6,2-.7.4-1.6.2-2-.6h0ZM53-60.8l1.4-2.4c.4-.7.2-1.6-.6-2-.7-.4-1.6-.2-2.1.6l-1.4,2.4c-.4.7-.2,1.6.6,2,.7.4,1.6.2,2-.6h0ZM131.4,105.1h87.2c.8,0,1.5-.7,1.5-1.5s-.7-1.5-1.5-1.5h-6.3v-51.1s3.1,0,3.1,0c.7,0,1.2-.6,1.2-1.2v-7.9c0-.7-.6-1.2-1.2-1.2h-1.8l-14.2-24.6c-.9-1.6-2.1-1.7-3.1,0l-11.9,20.7,4.7,8.2c2,.3,3.6,2.1,3.6,4.3v5.8c0,2-1.3,3.6-3.1,4.2h-3.1v-2.8h1.8c.7,0,1.3-.6,1.3-1.3v-5.8c0-.7-.6-1.3-1.3-1.3h-1l-10.1-17.6v-5.8h9.4c1.2,0,2.2-1,2.2-2.2v-5.2c0-.4-.1-.8-.3-1.1-.4-.7-1.1-1.1-1.9-1.1-3.6,0-10.9,0-10.9,0-.9,0-1.6.6-1.6,1.6v13.8c-3.4,5.9-6.8,11.7-10.2,17.6h-1c-.7,0-1.3.6-1.3,1.3v5.8c0,.7.6,1.3,1.3,1.3h1.8v5.9h18.7v39.8h-3v-20.8s-47.3,0-47.3,0v20.8h-1.9c-.8,0-1.5.7-1.5,1.5,0,.8.7,1.5,1.5,1.5h0ZM192,102.1v-6.3c0-3.3,2.7-6,5.9-6s6,2.7,6,6v6.3h-11.9ZM193.6,73.6h8.8c.8,0,1.6.7,1.6,1.6s-.7,1.6-1.6,1.6h-8.8c-.8,0-1.6-.7-1.6-1.6,0-.9.7-1.6,1.6-1.6ZM202.4,71.7h-8.8c-1,0-1.6-.8-1.6-1.7v-8.1c0-3.3,2.6-5.9,5.9-5.9s5.9,2.7,5.9,5.9v8.1c0,.9-.6,1.6-1.5,1.6h0ZM165.7,102.1v-6.2c0-3.1-2.6-5.7-5.7-5.7s-4,1.2-5,3h-7c-.8,0-1.5.7-1.5,1.5s.7,1.5,1.5,1.5h.2v1.3h-3.8c-.8,0-1.5.7-1.5,1.5s.7,1.5,1.5,1.5h7c.8,0,1.5-.7,1.5-1.5s-.7-1.5-1.5-1.5h-.2v-1.3h3.1v5.8h11.5,0ZM170.1,99.9h7c.8,0,1.5-.7,1.5-1.5s-.7-1.5-1.5-1.5h-7c-.8,0-1.5.7-1.5,1.5s.7,1.5,1.5,1.5ZM171.5,85.6v1.3h-3.8c-.8,0-1.5.7-1.5,1.5s.7,1.5,1.5,1.5h7c.8,0,1.5-.7,1.5-1.5s-.7-1.5-1.5-1.5h-.2v-1.3h3.8c.8,0,1.5-.7,1.5-1.5s-.7-1.5-1.5-1.5h-7c-.8,0-1.5.7-1.5,1.5s.7,1.5,1.5,1.5h.2ZM140.3,86.7h7c.8,0,1.5-.7,1.5-1.5s-.7-1.5-1.5-1.5h-7c-.8,0-1.5.7-1.5,1.5s.7,1.5,1.5,1.5ZM180.6,78.3v-13h-.3c-1.5,0-2.8,1.2-2.8,2.7v4h-4.3v-4c0-1.5-1.2-2.7-2.7-2.7h-5.1c-1.4,0-2.6,1.3-2.6,2.7v4h-4.3v-4c0-1.5-1.2-2.7-2.8-2.7h-4.9c-1.5,0-2.8,1.2-2.8,2.7v4h-4.3v-4c0-1.5-1.2-2.7-2.7-2.7h-5c-1.5,0-2.7,1.2-2.7,2.7v10.3h47.3ZM330.5,67.2c-3.9,8.7-6.1,18.9-6.1,29.8s0,3.4.2,5.1h5.7c.8,0,1.5.7,1.5,1.5s-.7,1.5-1.5,1.5h-50.3c-.8,0-1.5-.7-1.5-1.5s.7-1.5,1.5-1.5h5.7c.1-1.7.2-3.4.2-5.1,0-8.4-1.3-16.4-3.7-23.6.5-.2,1-.5,1.5-.7.4,0,1.5.5,1.9.7,4,2.1,7.6.8,8.6-3.8.4-2,.8-3,2.8-3.7,1.2-.4,2.2-1.1,2.8-2.2h12.8c.9,0,1.4-.7,1.5-1.6l1-15.6c0-1-.7-1.6-1.7-1.6h-11.1c1.6-2.3,1.8-5.5.3-8-.1-.2-.2-.4-.4-.5l3.1-4.3c8.4,11.6,16.7,23.2,25.1,34.8.1.1.2.3.3.4h0ZM291,29.4c.4,2.5.4,5.6.2,9l2.6-1.5c2.1-1.2,4.8-.6,6,1.5,1.2,2,.6,4.7-1.5,6l-7.5,4.5c0,4.2.5,7.7,2.4,9.4.9.8,6.1,3.6,2.6,4.8-3,1-4,2.8-4.7,5.9-.5,2.4-1.9,2.9-4.2,1.7-1.9-1-3.4-1.2-4.5-.7-1.5.8-2.9,1.9-4.3-.2-1-1.7-1.9-2.1-3.6-1-1.9,1.2-3,.5-3.4-1.7-.2-1-.8-1.4-2-1.2-3.8.7-2.8-1-3.1-3.5-.5-3.9-1.8-7.1-3.2-10.2,0,0-6.5-1.7-9.1-2.5-2.3-.6-3.7-3-3-5.3.6-2.3,3-3.7,5.3-3l2.4.6c-.6-1.8-1-3.6-1.1-5.7-2.1-25.2,30.3-28.3,33.9-6.9h0ZM269.4,41.8c-.4-3.2,1.1-5.9,3.3-6.1,2.2-.2,4.2,2.3,4.6,5.5.4,3.2-1.1,5.9-3.3,6.1-2.2.2-4.2-2.2-4.6-5.5ZM270.5,32.8c1-1.8,1-3.7,0-4.3-1.1-.6-2.8.4-3.8,2.1-1,1.8-1,3.7,0,4.3,1,.6,2.7-.4,3.8-2.1ZM276.2,32.8c-1-1.8-1-3.7,0-4.3,1.1-.6,2.8.4,3.8,2.1,1,1.8,1,3.7,0,4.3-1,.6-2.7-.4-3.8-2.1ZM303.6,60.6v-4.9h-4.7l.2,3.5c.3.4.6.9.7,1.4h3.8ZM303.6,52.7v-4.9h-5.2l.3,4.9h4.9ZM306.6,47.8v4.9h4.9l.3-4.9h-5.2ZM306.6,55.7v4.9h4.4l.3-4.9h-4.7ZM306.6,15.6c10.8,15,21.5,29.9,32.3,44.9,3,4.1-3.4,8.6-6.3,4.5-8.9-12.4-18.3-25.5-27.5-38.2,0,0,0,0,0,0l-5.3,7.4c-1.6-.9-3.5-1.2-5.4-.8,0-1.5-.1-3.1-.4-4.5l9.5-13.2c.7-1,2.4-1,3.1,0h0ZM320.7,30.1c-.2-1.7-.4-3.3-.7-4.9-1.6-.4-2.8-1.9-2.8-3.6s1.7-3.7,3.7-3.7h11c2,0,3.7,1.7,3.7,3.7s-1.2,3.3-3,3.6c-1.2,6.4-1.5,13.4-.7,20.5l-11.2-15.6ZM312.8,102.1l2-32.8c0-1-.7-1.6-1.7-1.6h-16.2c-1,0-1.8.7-1.7,1.6l2,32.8h3l-.9-14.1,2.4-1.4,8.2,12.5-.2,2.9h3ZM304.4,85.1l5.9,9,.2-3.1-4.4-6.8-1.6.9ZM308.7,82.6l2.1,3.2.3-4.6-2.4,1.4ZM299.1,82.5l12.3-7.1v2.2c-.1,0-12.2,7-12.2,7v-2.1ZM311.7,71.7l-12.8,7.4-.5-8.4h13.4v1ZM315.3,212.7h14.4c1.6,0,2.9-1.3,2.9-2.9v-24.1c0-1.6-1.3-2.9-2.9-2.9h-5.2v-3.3c0-6.1-4.6-9.2-9.2-9.3-4.6,0-9.2,3.2-9.2,9.3v3.3h-5.2c-1.6,0-2.9,1.3-2.9,2.9v24.1c0,1.6,1.3,2.9,2.9,2.9h14.4ZM312.1,198.3c-1.1,0-2-.9-2-2s.9-2,2-2,2,.9,2,2-.9,2-2,2ZM318.1,198.3c-1.1,0-2-.9-2-2s.9-2,2-2,2,.9,2,2c0,1.1-.9,2-2,2ZM294,134.9c20.1,0,36.6,16.5,36.6,36.6v8.4c-.3,0-.6,0-.9,0h-2.2v-8.3c0-18.5-15.1-33.6-33.5-33.6s-33.5,15.1-33.5,33.6v50.6h3.1v-34.1h14.5v37.1h-19.1c-.8,0-1.5-.7-1.5-1.5v-52.1c0-20.1,16.5-36.6,36.6-36.6h0ZM315.3,176.3c-1.9,0-3.1,1.3-3.1,3.3v.3h6.3v-.3c0-2-1.2-3.2-3.1-3.3ZM263.5,185v-13.6c0-10.9,5.8-20.5,14.5-25.9v39.5h-14.5ZM281.1,143.9c3.5-1.6,7.4-2.7,11.4-2.9v44h-11.4v-41.1ZM292.5,188.1v37.1h-11.4v-37.1h11.4ZM295.5,141c4.1.2,7.9,1.2,11.4,2.9v26.5c-2.4,2.2-3.9,5.4-3.9,9.2v.3h-2.2c-2.4,0-4.4,1.4-5.3,3.4v-42.2ZM310,145.6c8.6,5.3,14.4,14.9,14.5,25.7-2.2-2.5-5.4-4-9.2-4-1.7,0-3.8.4-5.3,1.2v-22.9ZM307,215.7v9.4h-11.4v-12.8c1,2,3,3.4,5.3,3.4h6.1ZM324.5,215.7v6.4h3.1v-6.4h2.2c.3,0,.6,0,.9,0v8c0,.8-.7,1.5-1.5,1.5h-19.1v-9.4h14.5ZM315.3,173.3c3.1,0,6.1,2.1,6.1,6.3v3.3h-12.3v-3.3c0-4.1,3-6.2,6.1-6.3ZM323.4,196.1c0-4.6-3.7-8.3-8.3-8.3s-8.3,3.7-8.3,8.3.3,2.3.7,3.4c0,1.7-.4,3.2,1.4,4.2l.4.2v1.2c0,1.4,1.2,2.6,2.6,2.6h6.5c1.4,0,2.6-1.1,2.6-2.6v-1.2l.4-.2c1.8-1,1.5-2.6,1.4-4.3.4-.8.7-2.4.7-3.3h0ZM65.6,146c-2.9-.8-5-3.4-5-6.5s.1-1.4.3-2c.3-.9-.2-1.8-1.1-2-1.5-.4-3.1-.6-4.7-.6-10.1,0-18.3,8.2-18.3,18.4s1.6,8.7,4.5,12.1h-4.3v23h.3l-5.4,16.1,21.7,8.1,1.8-5,1.8,4.9,21.6-8-5.8-15.9h.3v-23h-4.3c2.8-3.2,4.4-7.3,4.5-11.6,0-1.1-1.2-1.9-2.2-1.4-.4.2-.9.3-1.4.3-1.9,0-3.4-1.5-3.4-3.4s0-.7.2-1c.3-.8-.1-1.9-1-2.1h0ZM66.3,135.6c-1.9,0-3.5,1.6-3.5,3.5s1.6,3.5,3.5,3.5,3.5-1.6,3.5-3.5-1.6-3.5-3.5-3.5ZM71.9,142.3c-1.9,0-3.5,1.6-3.5,3.5s1.6,3.5,3.5,3.5,3.5-1.6,3.5-3.5-1.6-3.5-3.5-3.5ZM75.9,137.5c-.8,0-1.5.7-1.5,1.5s.7,1.5,1.5,1.5,1.5-.7,1.5-1.5c0-.8-.7-1.5-1.5-1.5ZM55,157.8c1.1,0,2.1-.4,3-1,.3-.2.6-.3,1-.3.8,0,1.5.7,1.5,1.5s-.2.9-.6,1.2c-1.4,1.1-3.1,1.6-4.9,1.6s-3.4-.6-4.9-1.6c-.4-.3-.6-.7-.6-1.2,0-.8.7-1.5,1.5-1.5s.7.1.9.3c.9.6,1.9,1,3,1h0ZM49,152.9c-1.2,0-2.1-1-2.1-2.1s1-2.1,2.1-2.1,2.2,1,2.2,2.1-1,2.1-2.2,2.1ZM61,152.9c-1.2,0-2.1-1-2.1-2.1s1-2.1,2.1-2.1,2.1,1,2.1,2.1-1,2.1-2.1,2.1ZM55,197.7c-2,0-3.6-1.6-3.6-3.6s1.6-3.6,3.6-3.6,3.6,1.6,3.6,3.6-1.6,3.6-3.6,3.6ZM55,184.1c-2,0-3.6-1.6-3.6-3.6s1.6-3.6,3.6-3.6,3.6,1.6,3.6,3.6-1.6,3.6-3.6,3.6ZM33.9,165.3h-2.5c-6.3,0-11.5,5.2-11.5,11.5s5.2,11.5,11.5,11.5h2.5v-23ZM76.1,188.3h2.5c6.3,0,11.5-5.2,11.5-11.5s-5.2-11.5-11.5-11.5h-2.5v23ZM58,215.1l.9,2.4c2.2,5.9,8.8,9,14.8,6.9,5.9-2.2,9-8.8,6.9-14.8l-.9-2.5-21.6,8ZM30.7,207.2l-.8,2.4c-2.2,5.9.9,12.6,6.9,14.8,5.9,2.2,12.6-.9,14.8-6.9l.8-2.3-21.7-8ZM-65,134.9c7.6,0,14.1,4.1,17.2,10.1l3.8-2.9c-.8-2.1-.2-4.6,1.7-6.1,2.3-1.8,5.7-1.4,7.4,1,1.8,2.3,1.4,5.6-1,7.4-1.9,1.5-4.5,1.4-6.3,0l-4.5,3.4c.5,1.6.7,3.2.7,4.9,0,5.5-2.7,10.5-6.8,13.7l5,2.2,7.6-8.7c-1.2-1.9-1.1-4.5.5-6.3,2-2.2,5.3-2.4,7.5-.4,2.2,1.9,2.4,5.3.4,7.5-1.6,1.8-4.1,2.3-6.2,1.3l-7,7.9,9.3,4.1c3.1,1.3,4.5,4.9,3.1,8-1.3,3-4.9,4.5-8,3.1l-7.8-3.4c0,.4,0,.8,0,1.1,0,5-1.1,9.6-3,13.4l5.7,21.3c.9,3.2-1.1,6.6-4.3,7.4-3.2.8-6.6-1.1-7.4-4.3l-4-15c-1.2.4-2.5.6-3.8.6s-1.9-.1-2.8-.3l-3.9,14.7c-.9,3.2-4.2,5.2-7.4,4.3-3.2-.9-5.1-4.2-4.3-7.4l5.4-20c-.2-.4-.4-.8-.7-1.2l-10.2,3.5c0,2.3-1.4,4.4-3.6,5.2-2.8.9-5.8-.6-6.7-3.4-.9-2.8.6-5.8,3.4-6.7,2.3-.8,4.7.1,6,2l10-3.4c-1.2-3.2-1.8-6.8-1.8-10.6s0-.8,0-1.1l-7.8,3.4c-3.1,1.3-6.7,0-8-3.1-1.3-3,0-6.7,3.1-8l17.2-7.5c-3.7-2.9-6.3-7.2-6.7-12l-6.1-2.6c-1.5,1.8-4,2.4-6.2,1.5-2.7-1.2-3.9-4.3-2.8-7,1.2-2.7,4.3-3.9,7-2.8,2.2.9,3.4,3.2,3.1,5.5l4.9,2.1c.8-9.2,9-16.4,19-16.4h0ZM-59.1,146.2c1.6,0,2.8,1.3,2.8,2.8s-1.2,2.8-2.8,2.8-2.8-1.2-2.8-2.8,1.3-2.8,2.8-2.8ZM-58.2,162.6c0,.8-.7,1.4-1.5,1.4s-1.5-.6-1.5-1.4h-1.9c0,.8-.7,1.4-1.5,1.4s-1.4-.6-1.5-1.4h-2c0,.8-.7,1.4-1.5,1.4s-1.5-.6-1.5-1.4h-.4c-.8,0-1.5-.7-1.5-1.5s.7-1.5,1.5-1.5h.4c0-.8.7-1.4,1.5-1.4s1.5.6,1.5,1.4h2c0-.8.7-1.4,1.5-1.4s1.5.6,1.5,1.4h1.9c0-.8.7-1.4,1.5-1.4s1.4.6,1.5,1.4h.4c.8,0,1.5.7,1.5,1.5s-.7,1.5-1.5,1.5h-.4ZM-74.2,145.5l1.4,1.4,1.4-1.4c1.4-1.4,3.6.7,2.2,2.1l-1.4,1.4,1.4,1.4c1.4,1.4-.8,3.6-2.2,2.2l-1.4-1.4-1.4,1.4c-1.4,1.4-3.6-.7-2.2-2.2l1.4-1.4-1.4-1.4c-1.4-1.4.7-3.6,2.2-2.1ZM-59.1,154.9c3.2,0,5.9-2.6,5.9-5.9s-2.6-5.9-5.9-5.9-5.9,2.6-5.9,5.9,2.6,5.9,5.9,5.9ZM-218.3,166.8c-.6,3.6-.4,7.6-.3,11.3v.8s-3.9-2.4-3.9-2.4c-2.4-1.4-5.5-.6-7,1.7-1.4,2.4-.6,5.5,1.7,7l9.7,5.8c0,3.7-.2,9.7-3.1,12.4-.8.7-1.9,1.3-2.7,2-1.4,1-3.3,2.6-.7,3.4,4,1.4,5.4,3.8,6.2,7.8.7,3,2.3,3.2,4.8,1.9,1.7-.9,4.2-1.9,6.1-1,1.9.9,3.3,2.2,4.9,0,1.4-2.3,2.8-2.9,5.1-1.4,2.2,1.5,3.2.4,3.7-1.9.4-1.7,1.4-2.2,3-1.9,4.3.8,3-.9,3.5-4,.6-4.6,2.3-8.9,4.1-13.1,0,0,8.3-2.2,11.7-3.2,2.7-.7,4.3-3.6,3.6-6.2-.7-2.7-3.6-4.3-6.3-3.6l-3.7,1,.2-.7c.7-2.3,1.2-4.7,1.4-7.1.7-8.2-1.5-16.3-8.1-21.6-3.7-3-8.4-4.6-13.1-4.7v-3.8c2.2-.7,3.8-2.7,3.8-5.1s-2.4-5.3-5.3-5.3-5.3,2.4-5.3,5.3,1.6,4.4,3.8,5.1v3.9c-1,.1-1.9.3-2.8.5-8.4,2.1-13.6,8.7-15,17h0ZM-176.1,225.1h33.9c1.3,0,2.3-1,2.3-2.3v-24.1c0-1.3-1.1-2.3-2.3-2.3h-15.4v-12.4c2.2-.6,3.8-2.7,3.8-5.1s-2.4-5.3-5.3-5.3-5.3,2.4-5.3,5.3,1.6,4.4,3.8,5.1v12.4h-15.4c-1.3,0-2.3,1-2.3,2.3v24.1c0,1.3,1,2.3,2.3,2.3h0ZM-173.1,210.2h5.7c.5,0,.9.4.9.9v5c0,.5-.4.9-.9.9h-5.7c-.5,0-.9-.4-.9-.9v-5c0-.5.4-.9.9-.9ZM-150.9,210.2h5.7c.5,0,.9.4.9.9v5c0,.5-.4.9-.9.9h-5.7c-.5,0-.9-.4-.9-.9v-5c0-.5.4-.9.9-.9ZM-166.9,205.1h15.5c.8,0,1.5-.7,1.5-1.5s-.7-1.5-1.5-1.5h-15.5c-.8,0-1.5.7-1.5,1.5s.7,1.5,1.5,1.5ZM-159.2,219.7c3.3,0,6-2.7,6-6s-2.7-6-6-6-6,2.7-6,6c0,3.3,2.7,6,6,6ZM-159.2,210.7c1.6,0,3,1.3,3,2.9s-1.3,2.9-3,2.9-2.9-1.3-2.9-2.9c0-1.6,1.3-2.9,2.9-2.9ZM-192.4,170.8c.7,1.2,2.7,3.4,4.2,2.6,1.5-.9.6-3.7,0-4.9-.7-1.2-2.7-3.4-4.2-2.6-1.5.9-.6,3.7,0,4.9ZM-200.4,170.8c.7-1.2,1.6-4,0-4.9-1.5-.9-3.5,1.4-4.2,2.6-.7,1.2-1.6,4,0,4.9,1.5.9,3.5-1.4,4.2-2.6ZM-202.3,183.6h11.8c.8,0,1.4-.6,1.4-1.4s-.6-1.3-1.4-1.3h-11.8c-.7,0-1.4.6-1.4,1.3s.6,1.4,1.4,1.4h0ZM-202.3,161.5h11.9c4.5,0,8.1,3.6,8.1,8.1s-3.6,8.1-8.1,8.1h-11.9c-4.4,0-8.1-3.6-8.1-8.1s3.6-8.1,8.1-8.1ZM183.7-320v1.7c0,1.8-1.5,3.2-3.2,3.2h-11c-1.8,0-3.3-1.5-3.3-3.2v-1.7c-2.5-.7-3.4-2.5-3.2-5,0-.4.2-1.7.1-2-.7-1.8-1.1-3.4-1.1-5.3,0-7.1,5.8-12.9,12.9-12.9s12.9,5.8,12.9,12.9-.4,3.6-1.1,5.3c0,.3.1,1.6.1,2,.2,2.5-.7,4.3-3.2,5h0ZM188.6-314h0c.7-.2,1.6.2,1.9.9.3.8,0,1.7-.8,2-.8.3-1.7,0-2-.8l-8.8,3.8.7.3,8.1,3.5c.3-.8,1.2-1.2,2-.8.8.4,1.1,1.3.8,2-.3.8-1.1,1.1-1.9.9h0c.7.4,1,1.2.6,2-.3.8-1.2,1.2-2,.8-.8-.3-1.1-1.2-.8-2l-11.4-4.9-11.4,4.9c.3.8,0,1.7-.8,2-.8.4-1.7,0-2-.8-.3-.8,0-1.6.7-1.9h0c-.7.2-1.5-.1-1.9-.9-.3-.8,0-1.7.8-2,.8-.3,1.7,0,2,.8l8.1-3.5.7-.3-8.8-3.8c-.3.8-1.2,1.2-2,.8-.8-.4-1.2-1.2-.8-2,.3-.7,1.1-1.1,1.9-.9h0c-.7-.4-1-1.2-.7-1.9.3-.8,1.2-1.2,2-.8.8.3,1.1,1.2.8,2l11.4,4.9,11.4-4.9c-.3-.8,0-1.7.8-2,.8-.4,1.7,0,2,.8.3.7,0,1.6-.7,1.9h0ZM156.5-301.8c-.3,0-.5.2-.8.2-1.2.4-6.7,2.4-6.7,4s5.5,3.6,6.7,4c5.9,1.9,13,2.6,19.3,2.6s13.4-.8,19.3-2.6c1.2-.4,6.7-2.4,6.7-4s-5.5-3.6-6.7-4c-.3,0-.5-.2-.8-.2-1.9-.6-2.8,2.3-.9,2.9.3,0,.5.2.8.2.9.3,2,.7,3,1.1-1,.5-2,.8-3,1.1-5.7,1.8-12.4,2.5-18.3,2.5s-12.7-.7-18.4-2.5c-.9-.3-2-.7-3-1.1,1-.5,2-.8,3-1.1.2,0,.5-.2.8-.2,1.9-.6,1.1-3.5-.9-2.9h0ZM163-309.2c-12.5,2-21.3,7-21.3,11.7s1.3,3.6,3.6,5.3c-3.3,3.3-5.2,7.2-5.2,11.4s3.7,11.1,9.7,15l-2.1,5.4c-.8,2.1.2,4.5,2.4,5.3,2.1.8,4.5-.2,5.3-2.3l1.8-4.7c11,4.1,24.9,4.1,35.9,0l1.8,4.7c.8,2.1,3.2,3.1,5.3,2.3,2.1-.8,3.2-3.2,2.3-5.3l-2.1-5.4c6-3.9,9.7-9.2,9.7-15s-1.9-8.1-5.2-11.4c2.3-1.7,3.6-3.5,3.6-5.3,0-4.7-8.9-9.6-21.3-11.7-2.5-.4-2.6,2.6-.7,2.9,3.9.6,7.7,1.6,11.2,2.9,1.7.7,7.9,3.6,7.9,5.8s-6.2,5.1-7.9,5.8c-6.9,2.7-15.1,3.8-22.5,3.8s-15.6-1.1-22.5-3.8c-1.7-.7-7.9-3.6-7.9-5.8s6.2-5.1,7.9-5.8c3.5-1.4,7.3-2.4,11.2-3,1.6-.2,1.8-3.3-.8-2.9h0ZM165.8-298.6c-.8,0-1.5.7-1.5,1.5s.7,1.5,1.5,1.5,1.5-.7,1.5-1.5c0-.8-.7-1.5-1.5-1.5ZM184.2-298.6c-.8,0-1.5.7-1.5,1.5s.7,1.5,1.5,1.5,1.5-.7,1.5-1.5-.7-1.5-1.5-1.5ZM175-300.2c-.8,0-1.5.7-1.5,1.5s.7,1.5,1.5,1.5,1.5-.7,1.5-1.5c0-.8-.7-1.5-1.5-1.5ZM178.4-321.1c.9,0,1.6.6,1.6,1.5v1.5h-3.1v-1.5c0-.8.7-1.5,1.5-1.5ZM174.9-321.1c.9,0,1.6.6,1.6,1.5v1.5h-3.1v-1.5c0-.8.7-1.5,1.5-1.5ZM171.5-321.1c.9,0,1.6.6,1.6,1.5v1.5h-3.1v-1.5c0-.8.7-1.5,1.5-1.5ZM175-323.5l-.5.7c-1.2,1.6-3.7-.1-2.5-1.8l1.7-2.5c.3-.4.8-.6,1.3-.6s1,.2,1.2.6l1.7,2.5c1.2,1.6-1.3,3.4-2.5,1.8l-.5-.7ZM179.6-326.9c-2.2,0-4-1.8-4-4s1.8-4,4-4,4,1.8,4,4c0,2.2-1.8,4-4,4ZM170.4-326.9c-2.2,0-4-1.8-4-4s1.8-4,4-4,4,1.8,4,4c0,2.2-1.8,4-4,4ZM-345.2-186.9c-2.6,2-2.2,4.6,1,5.6.6.2,10,2,6.5,4-5.2,3-.9,5.5,3,5.5,3.7,0,5.9,0,6.5,0,1.6,0,2,.3,2.8,1.5,2.2,3,3.8,6,4.8,8.9,1,2.9,1.6,3.9,1.5,7.1-.1,8.1-.2,12.1-.2,12.1-6.1.7-7,7.5-1.7,7.3,3.5,0,5.5.8,7.5-1.7,1.2-1.4,2-3.5,2.2-5.4.7-6.2,1.1-12.5,1.1-18.7,0-.5,0-1.5.4-1.9.3-.3,1.6-.5,2.1-.6,4.3-.9,7.8-3.3,10.5-6.9,1-1.4,2.8-1.7,2.8.6-.1,6,1.1,9.7,3.6,11.1,2,1.1,3.5,2.9,3,5.3-.8,4.4-1.6,6.8-3.3,10.9-6.1.7-7,7.5-1.7,7.3h4.6c4.6,0,8.1-13.2,9.3-18.4,0-.3-.1-.6-.2-.9-1-3.4.5-7.2,2.3-10,2.9-4.7,3.8-10.2,2.4-15.7,18.1-6.3,13.5-33.1-5.5-33.1h-4.5c-6,0-6-9.1,0-9.1h9c2,0,2-3.1,0-3.1h-9c-10.1,0-10.1,15.2,0,15.2h4.5c15.6,0,19.4,21.9,4.6,27.1-1.1-2.8-2.8-5.5-4.8-7.8l5.9-3.2c1.8-.9.3-3.6-1.4-2.6l-6.6,3.6c-.7-.7-1.4-1.3-2.2-1.8l5.2-4.2c1.6-1.2-.3-3.6-1.9-2.3l-5.9,4.7c-.9-.5-1.8-1-2.7-1.4l4.3-4.9c1.3-1.5-.9-3.5-2.3-2l-5.1,5.7c-.8-.2-1.6-.4-2.4-.6l2.8-5.9c.9-1.8-1.8-3.1-2.7-1.3l-3.3,6.9c-.8,0-1.7,0-2.5,0l1.9-5.9c.6-1.9-2.3-2.8-2.9-.9l-2.4,7.4c-.9.2-1.8.6-2.6,1l1.1-5.1c.4-1.9-2.5-2.6-2.9-.7l-1.8,7.8c-.7.5-1.4,1.1-2,1.7l-.2-4.9c0-2-3.1-1.9-3,.1l.3,8.1c-.9,1.2-1.6,2.5-2.3,3.9-.9,1.9-2.4,2-2.6-.2-.2-1.6.2-3.2.9-4.7,1.5-2.9,1.1-7.2-2.6-5.4-1.4.7-2.8,1.9-4.3,3.7-.8.9-1.1.8-2.3.8-4.1,0-6.7,0-7.5,0-4.3,0-6.3,4.1-9.3,6.5h0ZM-335.1-185.5c-.8,0-1.5-.7-1.5-1.5s.7-1.5,1.5-1.5,1.5.7,1.5,1.5-.7,1.5-1.5,1.5ZM-309.4-137.5c2.6-1.7,3.8-4.8,4.1-7.7.6-5.4,1.1-10.8,1.2-15.8-.7.2-2.2.7-3,.8,0,6.2-.4,12.4-1.1,18.5-.1,1.4-.5,2.8-1.2,4.2h0ZM-277.3-147.3c.3,1.2.6,2.5.8,3.8-5.7.9-6.5,7.5-1.3,7.3h4.5c3.9-.6,5.3-4.5,5-7.5-.4-4-1.6-8.6-2.3-10.7-.4-1.4-.2-2.2-1.3-3.2-1.3-1.2-2.1-2.9-2.6-4.7-1.2,2-2.4,4.9-1.8,7.1.2.6.3,1.2.4,1.8-.4,2-1,4.1-1.5,6.1h0ZM92.7-136.4v-8.1c0-3.1-2.4-5.6-5.5-5.7v-.2c0-2-1-3.8-2.6-4.8v-26.5c0-.8-.7-1.5-1.5-1.5-2.2,0-4-1.8-4-4s1.8-4,4-4,1.5-.7,1.5-1.5v-2.7c0-16.3-13.3-29.6-29.6-29.6s-29.6,13.3-29.6,29.6v2.7c0,.8.7,1.5,1.5,1.5,2.2,0,4,1.8,4,4s-1.8,4-4,4-1.5.7-1.5,1.5v26.5c-1.6,1-2.7,2.8-2.7,4.8v.2c-3,.2-5.4,2.7-5.4,5.7v8.1c0,.8.7,1.5,1.5,1.5h72.4c.8,0,1.5-.7,1.5-1.5h0ZM38.8-173.5h32.5c1,0,1.9.8,1.9,1.9v10.1c0,1-.8,1.9-1.9,1.9h-32.5c-1,0-1.9-.8-1.9-1.9v-10.1c0-1,.8-1.9,1.9-1.9ZM45.1-191.2h5.4v10.2c0,.9.7,1.6,1.6,1.6h5.8c.9,0,1.6-.7,1.6-1.6v-10.2h5.4c.9,0,1.6-.7,1.6-1.6v-5.8c0-.9-.7-1.6-1.6-1.6h-5.4v-5.4c0-.9-.7-1.6-1.6-1.6h-5.8c-.9,0-1.6.7-1.6,1.6v5.4h-5.4c-.9,0-1.6.7-1.6,1.6v5.8c0,.9.7,1.6,1.6,1.6ZM142.9-175.1c.6,1.7-.1,5.1-.2,7-.5,6,1.4,10,7.3,11.6l2.1.6v9.3h10.9v-5.5c0-2.1,3.3-2.1,3.3,0v5.5h7.2v-5.5c0-2.1,3.1-2.1,3.1,0v5.5h7.2v-5.5c0-2.1,3.2-2.1,3.2,0v5.5h11v-9.3l2.1-.6c6-1.7,7.8-5.7,7.3-11.6-.2-1.9-.9-5.3-.2-7,1.9-5.1,3.1-9.1,3.1-14.7,0-19.5-15.8-35.3-35.3-35.3s-35.3,15.8-35.3,35.3,1.3,9.6,3.2,14.7h0ZM152.1-143.3v1.7c0,3.7,3,6.7,6.7,6.7h4.2v-8.4h-10.9ZM166.3-134.9h7.2v-8.4h-7.2v8.4ZM176.5-134.9h7.2v-8.4h-7.2v8.4ZM187-134.9h4.2c3.7,0,6.7-3,6.7-6.7v-1.7h-11v8.4ZM188.7-177.1c5,0,9-4,9-9s-4-9-9-9-9,4-9,9c0,5,4,9,9,9ZM161.3-177.1c5,0,9-4,9-9s-4-9-9-9-9,4-9,9,4,9,9,9ZM175-168.9l3.8,5.4c1.2,1.7,3.9-.2,2.7-1.9l-5.1-7.3c-.6-.9-2.1-.9-2.7,0l-5.1,7.3c-1.2,1.7,1.4,3.6,2.7,1.9l3.8-5.4ZM-274.1-35.6c2.5-2.5,5.6-4.6,8.6-5.2,3.9-.8,6.3.7,5.1,4.9-.2,1-.6,2-.2,3,1,2.9,1,4.4,0,7.3-.3,1,0,2,.2,3,1.2,4.2-1.2,5.6-5.1,4.9-3-.6-6.1-2.7-8.6-5.2-1.1,2.2-2.7,4-4.6,5.4v-23.5c2,1.4,3.5,3.2,4.6,5.4h0ZM-332.9-94.2c1.1.6,1.8,1.8,1.8,3.1v4.3h-17.7v-4.3c0-1.3.7-2.5,1.8-3.1-1.4-1.8-2.6-3.8-2.9-5.7-.7-3.6.9-5.9,4.7-4.8.6.2,1.5.4,2.1.2,2.5-.8,3.9-.8,6.3,0,.7.2,1.5,0,2.1-.2,3.8-1,5.4,1.2,4.7,4.8-.4,2-1.5,3.9-3,5.7h0ZM-331.1-83.7v4.9h-17.7v-4.9h17.7ZM-331.1-75.8v4.9h-17.7v-4.9h17.7ZM-331.1-68v4.4c0,1.3-.7,2.5-1.8,3.1,1.4,1.8,2.6,3.7,2.9,5.7.7,3.6-.9,5.9-4.7,4.8-.6-.2-1.5-.4-2.1-.2-2.5.9-3.9.9-6.3,0-.6-.2-1.5,0-2.1.2-3.8,1.1-5.4-1.2-4.7-4.8.4-2,1.5-3.9,2.9-5.7-1.1-.6-1.8-1.8-1.8-3.1v-4.4h17.7ZM-298.6-85.5l20.9,20.9c3.4-5.9,2.6-13.5-2.4-18.6-5-5-12.7-5.8-18.6-2.4h0ZM-275.6-62.2c.6,1.4.4,3.1-.8,4.3-.2,0-1.8,1.9-4.3.8-5.9,3.9-13.6,4.1-19.7.4l-26,26c-1.5,1.5-4,1.5-5.5,0s-1.5-4,0-5.5l25.9-25.9c-4.1-6.1-4.1-14.2,0-20.3-.6-1.4-.3-3.2.8-4.3,1.1-1.1,2.8-1.4,4.3-.8,7.1-4.8,16.8-4,23.1,2.3,6.3,6.3,7,16,2.3,23.1h0ZM-283.1-59.1l-20.9-20.9c-3.4,5.9-2.6,13.5,2.4,18.6,5,5,12.7,5.8,18.6,2.4h0ZM-281.7-15.9c-1.2.5-2.5.8-3.8.9v-28.6c1.3.1,2.6.4,3.8.9V-15.9ZM-288.5-14.9c-1.3-.1-2.6-.4-3.8-.9v-26.7c1.2-.5,2.5-.8,3.8-.9V-14.9ZM-295.3-17.5c-2-1.4-3.6-3.2-4.6-5.4-2.5,2.5-5.6,4.6-8.6,5.2-3.9.8-6.3-.7-5.1-4.9.3-1,.6-2,.3-3-1-2.9-1-4.4,0-7.3.3-1,0-2-.3-3-1.2-4.2,1.2-5.6,5.1-4.9,3,.6,6.1,2.7,8.6,5.2,1.1-2.2,2.7-4,4.6-5.4v23.5ZM-153.2-47.3v6.1c0,4-3.3,7.2-7.2,7.2h-20.4v8.7h3.9c3.6,0,6.5,2.9,6.5,6.5v.9h6.3c.8,0,1.5.7,1.5,1.5s-.7,1.5-1.5,1.5h-41.2c-.8,0-1.5-.7-1.5-1.5s.7-1.5,1.5-1.5h5.9v-.9c0-3.6,2.9-6.5,6.5-6.5h3.9v-8.7h-20.4c-4,0-7.2-3.3-7.2-7.2v-6.1h-1.9c-2.3,0-4.1-1.8-4.1-4.1s1.4-3.6,3.3-4v-19.5c0-.7.6-1.3,1.3-1.3h4.1v-3.5c-3.3-.8-6-4.1-5.2-7.6.6-2.7,3.6-6.8,5.4-9.2,1.2-1.6,1.3-1.6,2.5,0,1.9,2.4,4.8,6.5,5.4,9.2.8,3.5-1.9,6.8-5.2,7.6v3.5h4.1c.7,0,1.3.6,1.3,1.3v19.5c1.9.4,3.3,2.1,3.3,4s-1.8,4.1-4.1,4.1h-1.9v5h19.4v-12.1h-1.9c-2.3,0-4.1-1.9-4.1-4.1s1.4-3.7,3.3-4.1v-20c0-.7.6-1.3,1.3-1.3h4.1v-3.5c-3.3-.8-6-4.1-5.2-7.6.6-2.7,3.6-6.8,5.4-9.2,1.2-1.6,1.3-1.6,2.5,0,1.9,2.4,4.8,6.5,5.4,9.2.8,3.5-1.9,6.8-5.2,7.6v3.5h4.1c.7,0,1.3.6,1.3,1.3v20c1.9.4,3.3,2.1,3.3,4.1s-1.8,4.1-4.1,4.1h-1.9v12.1h19.4v-5h-1.9c-2.3,0-4.1-1.8-4.1-4.1s1.4-3.6,3.3-4v-19.5c0-.7.6-1.3,1.3-1.3h4.1v-3.5c-3.3-.8-6-4.1-5.2-7.6.6-2.7,3.6-6.8,5.4-9.2,1.2-1.6,1.3-1.6,2.5,0,1.9,2.4,4.8,6.5,5.4,9.2.8,3.5-1.9,6.8-5.2,7.6v3.5h4.1c.7,0,1.3.6,1.3,1.3v19.5c1.9.4,3.3,2.1,3.3,4s-1.9,4.1-4.1,4.1h-1.9ZM-108.3-319.8h1.3c0-4.1,3.4-7.5,7.5-7.5H-30.4c4.1,0,7.5,3.4,7.5,7.5h1.3c1,0,1.8.8,1.8,1.8v5.8c0,1-.8,1.8-1.8,1.8h-1.3v28.4h1.3c1,0,1.8.8,1.8,1.8v5.8c0,1-.8,1.8-1.8,1.8h-86.7c-1,0-1.8-.8-1.8-1.8v-5.8c0-1,.8-1.8,1.8-1.8h1.3v-28.4h-1.3c-1,0-1.8-.8-1.8-1.8v-5.8c0-1,.8-1.8,1.8-1.8h0ZM-91.6-303.7h7.5v14.8h-7.5v-14.8ZM-45.8-303.7h7.4v14.8h-7.4v-14.8ZM-68.7-303.7h7.5v14.8h-7.5v-14.8ZM-92.6-306.7h9.5c1.1,0,2,.9,2,2v16.8c0,1.1-.9,2-2,2h-9.5c-1.1,0-2-.9-2-2v-16.8c0-1.1.9-2,2-2ZM-46.8-306.7h9.5c1.1,0,2,.9,2,2v16.8c0,1.1-.9,2-2,2h-9.5c-1.1,0-2-.9-2-2v-16.8c0-1.1.9-2,2-2ZM-69.7-306.7h9.5c1.1,0,2,.9,2,2v16.8c0,1.1-.9,2-2,2h-9.5c-1.1,0-2-.9-2-2v-16.8c0-1.1.9-2,2-2ZM175-451.6c11.2,0,24.2,7.1,14.9,25.7l7.5-2.2-2.2-35.5c-.1-2,2.9-2.3,3.1-.2l2.2,36.7c0,.8-.4,1.4-1.1,1.6l-11.7,3.4c-.8,1.3-1.7,2.6-2.7,4h19.8l6.9-25.9c.5-2,3.5-1.2,2.9.8l-7.2,27c-.2.8-.8,1.1-1.5,1.1h-23.3c-.5.6-1,1.2-1.7,1.7l20.7,5.2c.7.2,1,.6,1.2,1.3l2.9,20.7c.3,2-2.8,2.4-3,.4l-2.7-19.7-17.4-4.3c.6,1.1,1,2.4,1,3.8l8.1,5.6c.5.4.7,1,.6,1.6l-3.6,22.6c-.3,2-3.4,1.6-3.1-.4l3.5-21.9-6.1-4.3c-.4,1-.9,1.8-1.5,2.6v4.2c0,.8-.7,1.5-1.5,1.5s-1.5-.7-1.5-1.5v-2c-1.1.5-2.2.7-3.5.7s-2.4-.3-3.5-.7v2c0,.8-.7,1.5-1.5,1.5s-1.5-.7-1.5-1.5v-4.2c-.7-.8-1.2-1.6-1.5-2.6l-6.1,4.3,3.5,21.9c.3,2-2.7,2.4-3.1.4l-3.6-22.6c-.1-.6.1-1.2.6-1.6l8.1-5.6c0-1.4.4-2.6,1-3.8l-17.4,4.3-2.7,19.7c-.3,2-3.3,1.6-3-.4l2.9-20.7c0-.6.5-1.2,1.2-1.3l20.7-5.2c-.6-.5-1.2-1-1.7-1.7h-23.2c-.8,0-1.3-.4-1.6-1.1l-7.2-27c-.5-2,2.4-2.8,3-.8l6.9,25.9h19.8c-1-1.4-1.9-2.8-2.7-4l-11.7-3.4c-.7-.2-1.2-.9-1.1-1.6l2.2-36.7c.1-2,3.2-1.8,3.1.2l-2.2,35.5,7.5,2.2c-9.3-18.6,3.6-25.8,14.9-25.7h0ZM28.7-445.7c4.1,0,8.1,1.4,11.4,3.9,3.4-4.5,9.1-7.3,14.9-7.3s11.5,2.9,14.9,7.3c3.2-2.4,7.1-3.9,11.4-3.9,10.4,0,18.8,8.5,18.8,18.9v29.6c0,10.4-8.5,18.9-18.8,18.9s-8.1-1.4-11.4-3.9c-3.4,4.5-8.9,7.4-14.9,7.4s-11.3-2.8-14.9-7.4c-3.2,2.4-7.1,3.9-11.4,3.9-10.4,0-18.8-8.5-18.8-18.9v-29.6c0-10.4,8.5-18.9,18.8-18.9h0ZM82.7-409.5v.3c0,10.5-8.6,19.1-19.1,19.1h-4c-.8,0-1.5-.7-1.5-1.5v-5.6h-6.1v5.6c0,.8-.7,1.5-1.5,1.5h-4c-10.5,0-19.1-8.6-19.1-19.1v-.3c0-.9.6-1.6,1.5-1.6h9.7c.9,0,1.6.7,1.5,1.6v5.6h6.1v-5.6c0-.9.7-1.5,1.5-1.5h14.6c.9,0,1.6.7,1.5,1.6v5.5h6.1v-5.6c0-.8.7-1.5,1.5-1.5h9.7c.8,0,1.5.7,1.5,1.5h0ZM82.3-420.9l-9.7-12.6c-.6-.8-1.8-.8-2.4,0l-9.7,12.6c-.8,1-.2,2.6,1.2,2.6h19.6c1.3,0,2-1.6,1.2-2.6h0ZM49.6-420.9l-9.7-12.6c-.6-.8-1.8-.8-2.4,0l-9.7,12.6c-.8,1-.2,2.6,1.2,2.6h19.6c1.3,0,2-1.6,1.2-2.6h0ZM41.2-447.2v-1.1c0-4.2,3.4-7.6,7.6-7.6h4.7v-1.6c0-4.2,3.4-7.6,7.6-7.6h5.6c.8,0,1.5.7,1.5,1.5s-.7,1.5-1.5,1.5h-5.6c-2.5,0-4.5,2-4.5,4.5v1.6h4.7c4.2,0,7.6,3.4,7.6,7.6v1.1c-3.8-3.2-8.7-5-13.8-5-5.1,0-10,1.8-13.8,5h0ZM-100.8-449.3c-.4,2.5-.4,5.7-.2,9l-2.6-1.5c-2.1-1.2-4.8-.6-6,1.5-1.2,2-.6,4.8,1.5,6l7.5,4.5c0,4.1-.5,7.7-2.4,9.4-.9.8-6.2,3.6-2.6,4.8,3,1.1,4,2.8,4.7,5.9.5,2.4,1.9,2.9,4.2,1.7,1.9-1,3.4-1.2,4.5-.7,1.5.7,2.9,1.8,4.3-.2,1-1.7,2-2.1,3.6-1,1.9,1.2,3,.5,3.4-1.7.2-1,.8-1.5,2-1.2,3.8.7,2.8-1,3.1-3.5.5-3.9,1.8-7.1,3.2-10.1,0,0,6.5-1.7,9.1-2.5,2.3-.6,3.7-3,3-5.3-.6-2.3-3-3.7-5.3-3.1l-2.4.7c.6-1.8,1-3.6,1.1-5.7,2.1-25.2-30.3-28.3-33.9-6.9h0ZM-29.2-418.4c.4,2.5.4,5.6.2,9l2.6-1.6c2.1-1.2,4.8-.6,6,1.5,1.2,2,.6,4.8-1.5,6l-7.5,4.5c0,4.2.5,7.7,2.4,9.4.9.8,6.2,3.6,2.6,4.8-3,1-4,2.8-4.7,5.9-.5,2.4-1.9,2.9-4.2,1.7-1.9-1-3.4-1.2-4.5-.7-1.5.7-2.9,1.8-4.3-.2-1-1.7-2-2.1-3.6-1-1.9,1.2-3,.4-3.4-1.7-.2-1-.8-1.5-2-1.2-3.8.7-2.8-1-3.1-3.5-.5-3.9-1.8-7.1-3.2-10.1,0,0-6.5-1.7-9.1-2.5-2.3-.6-3.7-3-3-5.3.6-2.3,3-3.7,5.3-3.1l2.4.6c-.6-1.8-1-3.6-1.1-5.7-2.1-25.2,30.3-28.3,33.9-6.9h0ZM-50.8-405.9c-.4-3.2,1.1-5.9,3.3-6.1,2.2-.2,4.2,2.3,4.6,5.5.4,3.2-1.1,5.9-3.3,6.1-2.2.2-4.2-2.3-4.6-5.5ZM-49.7-415c1-1.8,1-3.7,0-4.3-1.1-.6-2.8.4-3.8,2.2-1,1.8-1,3.7,0,4.3,1.1.6,2.8-.4,3.8-2.1h0ZM-44-415c-1-1.8-1-3.7,0-4.3,1.1-.6,2.7.4,3.8,2.2,1,1.8,1,3.7,0,4.3-1,.6-2.7-.4-3.8-2.1ZM-79.2-436.9c.4-3.2-1.1-5.9-3.3-6.1-2.2-.2-4.2,2.2-4.6,5.5-.4,3.2,1.1,5.9,3.3,6.1,2.2.2,4.2-2.3,4.6-5.5ZM-80.3-445.9c-1-1.8-1-3.7,0-4.3,1.1-.6,2.8.4,3.8,2.1,1,1.8,1,3.7,0,4.3-1.1.6-2.8-.4-3.8-2.1h0ZM-85.9-445.9c1-1.8,1-3.7,0-4.3-1.1-.6-2.7.4-3.8,2.1-1,1.8-1,3.7,0,4.3,1,.6,2.7-.4,3.8-2.1ZM-102.3-40c1.2,1.7,3.4,4.7,3.9,6.7.5,2.2-1.9,4.3-3.9,4.3s-4.5-2.1-4-4.3c.5-2,2.6-5,3.9-6.7h0c0-.1,0,0,0,0ZM-83.2-47.7v4c0,1.8-1.4,3.1-3.2,3.1-1.8,0-3.2-1.4-3.2-3.2v-8.6l.2.2c1.9,1.6,3.9,3.1,6.1,4.4h0ZM-81.9-56c-.7-.6-1.4-1.2-2.2-1.7-1-.8-2.3-2-2.2-3.4,0-.8.4-1.7.8-2.5l.2-.4h.1c1.2,1.6,2.6,3,4,4.3l.6.6-.3.8c-.3.7-.6,1.4-.8,2.1v.2s-.2,0-.2,0ZM-84.2-67.3c1.1-5.6-2.2-10.9-5.9-14.8-.8-.9-1.6-2.2-2-3.4-.4-.9-.7-1.8-.8-2.7v-.2s.1,0,.1,0c6.6-.2,13.1-2.1,18.9-5.4l10.3-6,9.7,16.8-10.3,6c-5.7,3.3-10.7,8-14.1,13.7l-.9,1.4-1.2-1.2c-1.3-1.3-2.6-2.8-3.7-4.2h0s0,0,0,0h0ZM-95.9-88.3c.1,2.6,1.8,6.3,3.6,8.2,3,3.2,6.1,7.6,5.2,12.2-.5,2.3-2,4.3-2.1,6.6-.1,2.5,1.5,4.4,3.4,5.9,1.1.8,2.2,1.7,3.2,2.6h0s-.4,1.8-.4,1.8l-1.6-1.2c-5.6-4.1-10.7-10.1-14.2-16.1-3.4-6-6.1-13.5-6.9-20.3l-.2-2,1.9.6c2.6.8,5.2,1.3,7.9,1.5h.1s0,.1,0,.1ZM-86.3-24.4c.6.9,1.6,2.3,1.8,3.3.2,1-1,1.9-1.9,1.9s-2.1-1-1.9-1.9c.2-1,1.2-2.4,1.8-3.3h0c0-.1,0,0,0,0ZM-101.4-66.7c.6,1.1,1.3,2.2,2.1,3.3h0v7.9c0,1.8-1.4,3.2-3.2,3.2-1.8,0-3.2-1.4-3.2-3.2v-20.4l.2.6c1.1,3,2.4,5.9,4,8.6h0ZM-76.2-95.9l-2.9-5,6.2-3.6,2.9,5-6.2,3.6ZM-63.5-73.9l6.2-3.6L-23.5-19.1l-6.2,3.6-33.8-58.3ZM-346.1-323.1c3.1-5.2,2.4-11.8-1.7-16.2l-.3-.3.3-.2c6.6-4.8,15.9-4,21.7,1.8l11,11-1.2-.2c-10-1.8-20.2.8-29.4,4.8l-1.1.5.6-1ZM-297.9-321c.3,1.3.5,2.9.1,4.2v.4c0,0-.4,0-.4,0-.8-.2-1.5-.3-2.3-.3h-.4s0-.4,0-.4c.3-1.4,1.4-2.8,2.3-3.9l.5-.6.2.7ZM-288.1-304.5c0-.8-.2-1.5-.3-2.3v-.4c0,0,.3,0,.3,0,1.3-.3,2.9-.1,4.2.1l.7.2-.6.5c-1,.9-2.5,2-3.8,2.3h-.4c0,0,0-.3,0-.3ZM-340-265l-2-10.2,7.7-2.1v.3c.6,1.4,1.4,2.7,2.5,3.8s2.4,1.9,3.8,2.4h.3c0,.1-2.1,7.8-2.1,7.8l-10.2-2ZM-330.1-274.9c-.4-.4-.7-.8-1-1.2-1.8-2.7-1.7-6.1-.9-9.1,1-3.8,3.3-7.3,6.1-10.1,2.7-2.7,6.2-5,9.9-6.1h.3c0,0,.1.2.1.2,1.2,2.4,2.7,4.7,4.7,6.6,0,0,.1.2.2.2,0,0,.1.2.2.2,1.9,1.9,4.2,3.5,6.6,4.7h.3c0,.1,0,.4,0,.4-1.1,3.7-3.4,7.2-6.1,9.9-2.8,2.8-6.3,5.1-10.1,6.1-3,.8-6.5.9-9.1-.9-.4-.3-.9-.6-1.2-1h0ZM-308.9-296.1c-4.2-4.2-4.2-11,0-15.2,4.2-4.2,11-4.2,15.2,0,4.2,4.2,4.2,11,0,15.2-4.2,4.2-11,4.2-15.2,0ZM-284.4-287.8c-3.9,9.7-14.5,22.3-22.9,28.5l-.9.7-19.2-3.8,2.1-7.7h.3c6.3.6,12.8-2.9,17.1-7.2,2.9-2.9,5.3-6.6,6.5-10.7v-.4c.1,0,.5.1.5.1,5.2,1.8,10.9,1.7,16.1,0l.8-.3-.3.8ZM-299.3-263.1c6.9-6.7,15.5-17.5,18.2-26.7v-.2s.7-.3.7-.3v.5c2.4,10.5-.6,21.5-5,31.1l-.2.5-.4-.4c0,0-.1-.1-.2-.2-3.4-3.4-8.2-4.7-12.8-3.6l-1.3.3.9-1ZM-282.5-259.4c4-9.2,6.6-19.4,4.8-29.4l-.2-1.2,11,11c5.8,5.8,6.5,15,1.8,21.7l-.2.4-.3-.3c-4.4-4.1-11.1-4.8-16.2-1.7l-1,.6.5-1.1ZM-316.7-320.2c-1.8,5.2-1.8,10.9,0,16.1v.4c.1,0-.2.1-.2.1-4,1.2-7.7,3.6-10.7,6.5-4.4,4.3-7.9,10.8-7.3,17.1v.3s-7.7,2-7.7,2l-3.8-19.2.7-1c6.2-8.4,18.8-19,28.5-22.9l.8-.3-.3.8ZM-342.6-306c1.1-4.6-.3-9.4-3.6-12.8,0,0-.1-.1-.2-.2l-.4-.4.5-.2c9.6-4.4,20.5-7.4,31.1-5.1h.5c0,.1-.3.7-.3.7h-.2c-9.2,2.7-20,11.4-26.7,18.2l-.9,1,.3-1.3ZM-302.3-308.2c-.5-.5-1.2-.5-1.7,0-.5.5-.5,1.3,0,1.7.5.5,1.3.5,1.7,0,.5-.5.5-1.2,0-1.7ZM-296.8-302.7c-.5-.5-1.3-.5-1.7,0-.5.5-.5,1.2,0,1.7.5.5,1.2.5,1.7,0,.5-.5.5-1.3,0-1.7ZM-283.3-429.2l1.1-.6c2-1.2,3.9-3,5.5-4.8l.7-.8v1c-.2,5.7-1.3,13-6.6,16.3l-.6.4v-11.5s0,0,0,0ZM-305-382.5c1.2,0,2.1-.9,2.1-2.1s-1-2.1-2.1-2.1-2.1.9-2.1,2.1,1,2.1,2.1,2.1ZM-305-389.1c1.2,0,2.1-.9,2.1-2.1s-1-2.1-2.1-2.1-2.1.9-2.1,2.1,1,2.1,2.1,2.1ZM-313.5-449.8c-7.2,0-13.2,5.9-13.2,13.2v4.8l-.6-.4c-1.2-.8-2.2-1.7-3.2-2.7h-.1v-12.3c0-7.9,6.5-14.3,14.3-14.3h22.1c7.9,0,14.3,6.5,14.3,14.3v12.5h-.1c-.9,1-1.8,1.8-2.9,2.6l-.6.4v-4.8c0-7.2-5.9-13.2-13.2-13.2s-5.9,1-8.3,2.9l-.2.2-.2-.2c-2.3-1.9-5.2-2.9-8.3-2.9h0ZM-344.6-378.3v-4.4c0-9.1,6.4-16.7,15.2-18.6,5.4,6.8,8.5,14.4,10.1,22.9h-25.3ZM-326.6-411.4c0,.4,0,.6.4.9l13.5,12.5v19.6h-4.1c-1.6-9.1-5.2-17.8-11.1-25-4.9-5.9-11.5-10.9-19.1-12.4l-1-.2.9-.5c4.1-2.4,8.4-4.4,12.8-6h.3c0-.1.2.2.2.2,1.5,3.2,3.7,5.6,6.9,7h.2c0,.1,0,3.9,0,3.9ZM-310.4-378.3v-19.2h10.7v19.2h-10.7ZM-283.3-411.4v-3.8h.2c3.2-1.5,5.4-4,6.9-7.1l.2-.3h.3c4.5,1.7,8.8,3.7,12.8,6.1l.9.5-1,.2c-7.6,1.6-14.2,6.5-19.1,12.4-5.8,7-9.5,15.7-11,24.6v.3h-4.1v-19.6l13.4-12.5c.2-.2.4-.5.4-.8h0ZM-290.6-378.8c1.5-8,4.8-15.9,9.9-22.3l.2-.2h.2c8.7,1.9,14.9,9.7,14.9,18.6v4.4h-25.2v-.5ZM-327.2-418c-5.4-3.3-6.5-10.6-6.6-16.3v-1s.7.8.7.8c1.6,1.8,3.4,3.6,5.5,4.8l1.1.6v11.5l-.6-.4ZM-324.2-416.7v-19.9c0-5.9,4.8-10.7,10.7-10.7s5.6,1.2,7.6,3.2h0c.2.2.5.4.8.4s.6-.1.8-.3h0c2-2.1,4.8-3.2,7.6-3.2,5.9,0,10.7,4.8,10.7,10.7v24.7l-12.9,12h-12.7l-12.9-12v-4.8ZM-310.8-412.9c-.7,0-1.2.6-1.2,1.2s.6,1.2,1.2,1.2h.6v2.1c0,.7.5,1.2,1.2,1.2s1.2-.6,1.2-1.2v-2.1h5.9v2.1c0,.7.5,1.2,1.2,1.2s1.2-.6,1.2-1.2v-2h.4c.6,0,1.1-.6,1.1-1.2s-.6-1.2-1.2-1.2h-11.6ZM-305.5-419.9c-.7,0-1.2.6-1.2,1.2s.6,1.2,1.2,1.2h1.1c.7,0,1.2-.6,1.2-1.2s-.6-1.2-1.2-1.2h-1.1ZM-301-428.8c-.6.2-1,.8-.9,1.5.2.6.8,1,1.5.8l1.4-.4v.4c.3,1.7,1.7,3,3.5,3s3.4-1.5,3.4-3.4,0-.9-.3-1.4l-.2-.4,1.5-.4c.6-.2,1-.8.9-1.5-.2-.6-.9-1-1.5-.9-3.1.8-6.2,1.7-9.3,2.5h0ZM-309-428.8c-3.1-.8-6.2-1.7-9.3-2.5-.6-.2-1.3.2-1.5.9-.2.6.2,1.3.9,1.5l1.5.4-.2.4c-.2.4-.3.9-.3,1.4,0,1.9,1.5,3.4,3.4,3.4s3.2-1.3,3.4-3v-.4c0,0,1.5.4,1.5.4.6.2,1.3-.2,1.5-.8.2-.7-.2-1.3-.9-1.5h0ZM-138.2-388.3c0,5-10.2,8-13.9,8.9-10.4,2.7-22.2,3.6-32.9,3.6s-22.5-.8-32.9-3.6c-3.7-.9-13.9-3.9-13.9-8.9s15.8-9.5,20.7-10.4c5.9,4.9,18.6,6.1,26.1,6.1s20.2-1.2,26.1-6.1c4.9.8,20.7,4.1,20.7,10.4h0ZM-189.6-409.9c-1,0-1.9.8-1.9,1.9v1.3c-5.1-.4-11.6-1.1-16.2-3.6.4-1.8.9-3.7,1.7-5.4,1-2.2,3.1-2.9,5.2-3.8,1.2-.6,2.5-1.2,3.6-1.9.7-.4,4.1-2.6,3.8-3.6-.1-.6-1.6-.7-2-.8-4-.4-5-3-2.9-6.3,3.4-5.1,6.9-10.2,10.6-15.2,3.6-4.8,8.2-11,12.8-14.7,6.1-5,13.1-.1,16.7,5.4.3.5,1.5,2.1,1,2.7-.5.6-1.9-.3-2.3-.6-2.2-1.3-4.7-2-7.2-1.2-7.3,2.4-11.1,16.6-9,23.3.6,1.8,1.5,3,3.1,3.9,3.6,2,5.3,2.1,3.5,7.1-.9,2.6,2.8,9.8,4,12.3-4.4,1.5-8.7,2.1-13.4,2.5v-1.3c0-1-.8-1.9-1.9-1.9h-9.3ZM-164-407.1c1.1,2.2,2.3,4.3,3.5,6.5-4.5,4.6-18.4,5.3-24.4,5.3s-20.1-.8-24.4-5.2c.3-2.6.7-5.1,1.2-7.6,5.3,2.5,10.9,3.5,16.7,4v1.8c0,1,.8,1.9,1.9,1.9h9.3c1,0,1.9-.9,1.9-1.9v-1.8c5-.4,9.7-1.2,14.4-3h0ZM-188.9-407.3h7.9v4.3h-7.9v-4.3ZM251.4-435.9h3.2l6.5-15.8-2.2-2.2c-.6-.6-.6-1.6,0-2.2.6-.6,1.6-.6,2.2,0l2.2,2.2,15.8-6.5v-3.2c0-.8.7-1.5,1.5-1.5s1.5.7,1.5,1.5v3.2l15.8,6.5,2.2-2.2c.6-.6,1.6-.6,2.2,0,.6.6.6,1.6,0,2.2l-2.2,2.2,6.5,15.8h3.2c.9,0,1.6.7,1.6,1.5s-.7,1.6-1.6,1.6h-3.2l-6.5,15.8,2.2,2.2c.6.6.6,1.6,0,2.2-.6.6-1.6.6-2.2,0l-2.2-2.2-15.8,6.5v3.2c0,.8-.7,1.5-1.5,1.5s-1.5-.7-1.5-1.5v-3.2l-15.8-6.5-2.2,2.2c-.6.6-1.6.6-2.2,0-.6-.6-.6-1.6,0-2.2l2.2-2.2-6.5-15.8h-3.2c-.8,0-1.5-.7-1.5-1.6s.7-1.5,1.5-1.5h0ZM300.3-398l4.3-10.3-1.3-1.3c-.6-.6-.6-1.6,0-2.2.6-.6,1.6-.6,2.2,0l1.3,1.3,10.3-4.3v-1.9c0-.8.7-1.5,1.5-1.5s1.6.7,1.6,1.5v1.9l10.3,4.3,1.3-1.3c.6-.6,1.6-.6,2.2,0,.6.6.6,1.6,0,2.2l-1.3,1.3,4.3,10.3h1.9c.8,0,1.5.7,1.5,1.5s-.7,1.5-1.5,1.5h-1.9l-4.3,10.3,1.3,1.3c.6.6.6,1.6,0,2.1-.6.6-1.6.6-2.2,0l-1.3-1.3-10.3,4.3v1.9c0,.8-.7,1.5-1.6,1.5s-1.5-.7-1.5-1.5v-1.9l-10.3-4.3-1.3,1.3c-.6.6-1.6.6-2.2,0-.6-.6-.6-1.6,0-2.1l1.3-1.3-4.3-10.3h-1.9c-.9,0-1.6-.7-1.6-1.5s.7-1.5,1.6-1.5h1.9ZM317-405.6v-1.3l-4.7,2,.9.9,3.8-1.6ZM311-401.9l-.9-.9-2,4.7h1.2l1.6-3.8ZM309.4-395h-1.2l2,4.7.9-.9-1.6-3.8ZM313.2-389l-.9.9,4.7,1.9v-1.3l-3.8-1.6ZM320.1-387.4v1.3l4.7-1.9-.9-.9-3.8,1.6ZM326-391.2l.9.9,2-4.7h-1.2l-1.6,3.8ZM327.6-398h1.2l-2-4.7-.9.9,1.6,3.8ZM323.9-404l.9-.9-4.7-2v1.3l3.8,1.6ZM317-402.3l-1.5.6,1.5,1.5v-2.1ZM313.3-399.5l-.6,1.5h2.1l-1.5-1.5ZM312.7-395l.6,1.5,1.5-1.5h-2.1ZM315.5-391.3l1.5.6v-2.1l-1.5,1.5ZM320.1-390.7l1.5-.6-1.5-1.5v2.1ZM323.7-393.5l.6-1.5h-2.1l1.5,1.5ZM324.3-398l-.6-1.5-1.5,1.5h2.1ZM321.5-401.7l-1.5-.6v2.1l1.5-1.5ZM317-410.2v-1.3l-7.9,3.3.9.9,7-2.9ZM307.8-405.1l-.9-.9-3.3,7.9h1.2l2.9-7.1ZM304.8-395h-1.2l3.3,7.9.9-.9-2.9-7.1ZM309.9-385.8l-.9.9,7.9,3.3v-1.2l-7-2.9ZM320.1-382.8v1.2l7.9-3.3-.9-.9-7,2.9ZM329.3-387.9l.9.9,3.3-7.9h-1.2l-2.9,7.1ZM332.2-398h1.2l-3.3-7.9-.9.9,2.9,7.1ZM327.1-407.3l.9-.9-7.9-3.3v1.3l7,2.9ZM279.1-447.2l-6.4,2.7-2.3-2.4,8.7-3.6v3.3ZM270.5-442.3l-2.6,6.4h-3.3l3.6-8.7,2.3,2.4ZM267.9-432.9l2.6,6.4-2.3,2.4-3.6-8.7h3.3ZM272.7-424.3l6.4,2.6v3.3l-8.7-3.6,2.3-2.3ZM282.2-421.7l6.4-2.6,2.3,2.3-8.7,3.6v-3.3ZM290.7-426.5l2.7-6.4h3.3l-3.6,8.7-2.4-2.4ZM293.4-435.9l-2.7-6.4,2.4-2.4,3.6,8.7h-3.3ZM288.6-444.5l-6.4-2.7v-3.3l8.7,3.6-2.3,2.4ZM279.1-443.8l-4.1,1.7,4.1,4.1v-5.7ZM272.9-440l-1.7,4.1h5.7l-4.1-4.1ZM271.2-432.9l1.7,4,4.1-4h-5.8ZM275-426.6l4.1,1.7v-5.7l-4.1,4.1ZM282.2-425l4.1-1.7-4.1-4.1v5.7ZM288.4-428.8l1.7-4h-5.7l4.1,4ZM290.1-435.9l-1.7-4.1-4.1,4.1h5.8ZM286.2-442.2l-4.1-1.7v5.7l4.1-4.1ZM279.1-453.8l-11.1,4.6-2.4-2.4,13.4-5.6v3.3s0,0,0,0ZM265.8-447l-4.6,11.1h-3.3l5.6-13.4,2.3,2.3ZM261.2-432.9l4.6,11.1-2.3,2.4-5.6-13.4h3.3ZM268-419.6l11.1,4.6v3.3l-13.4-5.5,2.4-2.4ZM282.2-415l11.1-4.6,2.4,2.4-13.4,5.5v-3.3s0,0,0,0ZM295.4-421.8l4.6-11.1h3.3l-5.6,13.4-2.3-2.4ZM300-435.9l-4.6-11.1,2.3-2.3,5.6,13.4h-3.3ZM293.2-449.2l-11.1-4.6v-3.3l13.4,5.6-2.4,2.4ZM39.6-275.2l-6.8-6.8,3.4-3.4,6.8,6.8-3.4,3.4ZM79.1-267.6c.3,1.2-1.1,2.3-2.2,2.3s-2.5-1.2-2.2-2.3c.3-1.3,1.4-2.9,2.2-4,.8,1.1,1.9,2.7,2.2,4ZM98.2-276.2c.6,2.4-2,4.8-4.3,4.8s-4.9-2.4-4.3-4.8c.5-2.3,2.9-5.5,4.3-7.5,1.4,2,3.8,5.2,4.3,7.5ZM80.4-295.9v10.4c0,2-1.6,3.6-3.5,3.6s-3.6-1.6-3.6-3.6v-2.9c2.4-2.5,4.8-5,7.1-7.6h0ZM97.4-322.9v25.2c0,2-1.6,3.5-3.6,3.5s-3.6-1.6-3.6-3.5v-11c3-4.7,5.1-9,7.1-14.2h0ZM82.2-325.4c1.2.8,2.7,1.1,4,1.5,1.1.3,1,.9.6,1.9-.4.9-1.1,1.8-1.8,2.5-.8,1-2,2.1-3.1,2.7-4.9,2.6-9.9,6.6-10.6,12.4-.2,1.3,0,2.7,0,4,.3,3.3-.2,4.4-3.5,5.6-2.6.9-6.9,2.2-8.1,4.9-1.4,3,1.2,6.4,3,8.7l-9.3,9.3-15.3-15.3,42-42c.4,1.5.8,2.8,2.1,3.8h0ZM62-289c.8-1.6,5-2.9,6.7-3.5,2.2-.8,4.4-2,5.1-4.5.6-2.3-.2-4.8,0-7.2.6-4.9,5.2-8.3,9.3-10.5,2.6-1.4,7.7-6.4,6.3-9.7-.4-1.1-1.4-1.7-2.5-2-1-.3-2.4-.5-3.2-1.1-1-.8-1.2-2.7-1.4-3.9l14.4-14.4c1,6,1,11.4-.4,17.4-3.6,15.1-14.8,28.4-25.6,39.2l-6.2,6.2c-1-1.3-3.3-4.1-2.5-5.8h0ZM13.2-262.3l6.8,6.8-.3.3c-1.9,1.6-4.8,1.5-6.5-.2-1.8-1.8-1.9-4.6-.2-6.5l.3-.3ZM21.8-257.4l-6.8-6.8,4.1-4.1,6.8,6.8-4.1,4.1ZM27.7-263.4l-6.8-6.8,4.1-4.1,6.8,6.8-4.1,4.1ZM33.7-269.3l-6.8-6.8,4.1-4.1,6.8,6.8-4.1,4.1ZM306.6-254.9c.8,0,.9,0,1.5-.6l8.7-9.7c.3-.3.4-.7.4-1.1v-16.5c0-.4,0-.7-.3-1.1l-1.9-2.8c-3-4.3-6-8.7-9-13-.5-.7-.9-.7-1.7-.7h-2.4v-6.4c-3,1.1-4.8.5-7.6-.6-2.7-1.1-3.9-.5-6.3.8v6.2h-2.5c-.8,0-1.2,0-1.6.7-3,4.3-6,8.7-9,13l-1.9,2.8c-.2.4-.3.6-.3,1.1v16.5c0,.4.2.8.4,1.1l8.7,9.7c.5.6.8.5,1.5.5h23.2ZM274-334.4c.8,0,1.5.7,1.5,1.5v2.6h2.6c.8,0,1.5.7,1.5,1.5s-.7,1.5-1.5,1.5h-2.6v2.6c0,.8-.7,1.5-1.5,1.5s-1.5-.7-1.5-1.5v-2.6h-2.7c-.8,0-1.5-.7-1.5-1.5s.7-1.5,1.5-1.5h2.7v-2.6c0-.8.7-1.5,1.5-1.5ZM280.1-311.7c.8,0,1.5.7,1.5,1.5v2.6h2.7c.8,0,1.5.7,1.5,1.5s-.7,1.5-1.5,1.5h-2.7v2.6c0,.8-.7,1.5-1.5,1.5s-1.5-.7-1.5-1.5v-2.6h-2.6c-.8,0-1.5-.7-1.5-1.5s.7-1.5,1.5-1.5h2.6v-2.6c0-.8.7-1.5,1.5-1.5ZM316-342.1c.8,0,1.5.7,1.5,1.5v2.7h2.7c.8,0,1.5.7,1.5,1.5s-.7,1.5-1.5,1.5h-2.7v2.6c0,.8-.7,1.5-1.5,1.5s-1.5-.7-1.5-1.5v-2.6h-2.6c-.8,0-1.5-.7-1.5-1.5s.7-1.5,1.5-1.5h2.6v-2.7c0-.8.7-1.5,1.5-1.5ZM310-316.6c.8,0,1.5.7,1.5,1.5v2.6h2.6c.8,0,1.5.7,1.5,1.5s-.7,1.5-1.5,1.5h-2.6v2.6c0,.8-.7,1.5-1.5,1.5s-1.5-.7-1.5-1.5v-2.6h-2.7c-.8,0-1.5-.7-1.5-1.5s.7-1.5,1.5-1.5h2.7v-2.6c0-.8.7-1.5,1.5-1.5ZM295-265.4c-.8,0-1.5-.7-1.5-1.5v-9h-3.6c-.8,0-1.5-.7-1.5-1.5s.7-1.5,1.5-1.5h3.6v-3.7c0-.8.7-1.5,1.5-1.5s1.5.7,1.5,1.5v3.7h3.6c.8,0,1.5.7,1.5,1.5s-.7,1.5-1.5,1.5h-3.6v9c0,.8-.7,1.5-1.5,1.5ZM301.9-310v-15.3h.8c2.4,0,4.3-1.9,4.3-4.3s-1.9-4.3-4.3-4.3h-2.5l2.5-9.2c.3-1-.5-2-1.6-2h-12.2c-1.1,0-1.9,1-1.6,2l2.5,9.2h-2.5c-2.4,0-4.3,2-4.3,4.3s1.9,4.3,4.3,4.3h.8v15.3c2.6-1.2,4.7-1.3,7.4-.2,2.9,1.1,3.5,1.4,6.4.2h0ZM297.5-293c3.7,4.7,9.4,12.7,10.6,17.9,1.8,7.8-5.5,15.2-13.1,15.2s-14.9-7.4-13.1-15.2c1.2-5.3,7-13.2,10.6-17.9,2.4-3.1,2.5-3.1,4.9,0h0ZM330.4-144.9v5l-27.8-1.7v-.2l27.8-3.1ZM269.7-178.2c2.9-1.6,6.1-2.5,9.5-2.5h31.8c3.3,0,6.6.8,9.5,2.5l.4.2h-51.5l.4-.2ZM324.6-175c.5.5,1,1,1.4,1.6v.2c.1,0-65.5,6.3-65.5,6.3v-.2c1-2.9,2.7-5.6,4.9-7.8h0s59.1,0,59.1,0h0ZM279.6-205.1c0-1.5,0-2.9,0-4.4,0-1,.2-2,.4-2.9h0c0,0,29.1-1.8,29.1-1.8h0c.8,2.8,1.2,5.7,1.2,8.5h0c0,.1-30.8,1.4-30.8,1.4h0v-.9h0ZM310.2-202.4c-.2.9-.4,1.8-.7,2.6h0c0,0-14.5-1.9-14.5-1.9v-.2s15.3-.7,15.3-.7v.2ZM308-196.8c-.4.5-.7,1-1.1,1.5h0s-24.9-1.8-24.9-1.8h0c-.7-1.1-1.2-2.3-1.6-3.5v-.2s27.8,3.8,27.8,3.8v.2ZM303.5-192.3c-2.5,1.7-5.5,2.6-8.5,2.6s-7.5-1.4-10.3-4l-.2-.2,19.3,1.4-.3.2ZM281.2-215.7c.5-1.1,1.2-2.2,2-3.1h0s24.4.9,24.4.9h0c.1.3.2.5.3.7v.2c0,0-26.8,1.5-26.8,1.5v-.2ZM286.5-221.9c2.5-1.7,5.5-2.6,8.5-2.6s7.1.9,9.8,3.3l.2.2-18.9-.8.3-.2ZM330.4-135.6h-70.7v-1.4l24.3-2.7,46.4,2.8v1.4ZM330.4-147.9l-70.7,7.9v-8.2h70.7v.2ZM259.7-151.1v-9.7l70.7,7.9v1.7h-70.7ZM259.9-163.9l20.3-1.9,50.2,5.6v4.4l-70.5-7.9v-.2ZM328-170.4c1.2,2.2,1.9,4.5,2.2,7h0c0,.1-34.7-3.7-34.7-3.7v-.2l32.5-3.1h0ZM-84.9,46.6c-.2-6.7,2.2-13.5,7.6-18.9,2.6-2.6,5.6-4.5,8.8-5.9,2.7-1.1,2.3-3.2-.2-4-10.5-3.4-22.5-.9-30.8,7.5-5.8,5.8-9,13.5-9,21.4,0,7.9,3.1,15.6,9,21.4,6,6,13.8,8.9,21.7,8.9l-1.8-6.7c-.2-.6,0-1.2.4-1.5l2.4-2.6c-.2-.2-.3-.3-.5-.5-5.4-5.4-7.8-12.3-7.6-19h0ZM-67.9,47l4.3,3.5c.3.3.7.5,1.1.5h25.2c.4,0,.8-.2,1.1-.5l4.3-3.5-4.3,7.4c-.5.6-.5,1.5,0,2.1l12.8,13.8-4.7,17.6-8.2,2.6c-.4,0-.6.3-.9.6l-9.3,12.7h-6.9l-9.3-12.7c-.2-.3-.5-.5-.8-.6l-8.2-2.6-4.7-17.6,12.8-13.8c.6-.6.6-1.4.1-2.1l-4.4-7.4ZM-57,73.2v.4c-.3,2-2,3.6-4.1,3.6s-4.1-1.8-4.1-4.1.1-1.1.3-1.6l.2-.4-1.6-.4c-.8-.2-1.3-1.1-1.1-1.8.2-.8,1-1.3,1.8-1.1,3.6,1,7.3,2,10.9,2.9.8.2,1.3,1,1.1,1.8-.2.8-1,1.3-1.8,1l-1.6-.4ZM-35.2,71.2l.2.4c.2.5.3,1.1.3,1.6,0,2.3-1.8,4.1-4.1,4.1s-3.8-1.6-4.1-3.6v-.4s-1.6.4-1.6.4c-.8.2-1.6-.3-1.8-1-.2-.8.3-1.6,1.1-1.8,3.6-1,7.3-1.9,10.9-2.9.8-.2,1.6.3,1.8,1.1.2.8-.3,1.6-1.1,1.8l-1.6.4ZM-43.8,93c.5-.9-.2-2.1-1.2-2.1h-9.7c-1.1,0-1.8,1.3-1.3,2.2l4.8,6.6c.6,1,2,1,2.5,0,.2-.3,3.1-3.7,4.8-6.7ZM-26,63l4.5-13.7-4.7-6.1-7.1,12,7.3,7.8ZM-73.9,63l-4.5-13.7,4.6-6.1,7.1,12-7.3,7.8ZM318.4-84.4c1.4,1.2,2.4,2.9,2.4,4.9,0,12.6,0,25.3,0,37.9s-1.2,7.1-2.9,10.5c-.9,1.8-3.4,6.8-3.4,8.7v5.9c0,.8-.7,1.5-1.5,1.5s-1.6-.7-1.6-1.5v-6.3c0-2.3,2.6-7.5,3.7-9.7,1.5-3,2.6-5.7,2.6-9.1v-34.6c-.8.8-2,1.2-3.2,1.2s-2.5-.4-3.4-1.3v15.6c0,2-3.1,2-3.1,0,0-8.7,0-12.6,0-21.3-.8.8-2,1.2-3.2,1.2s-2.5-.4-3.4-1.3v21.5c0,2-3.1,2-3.1,0,0-9.3,0-18.2,0-27.5-.8.8-2,1.2-3.2,1.2s-2.5-.4-3.4-1.3c0,9.3,0,18.2,0,27.5s-3.1,2-3.1,0v-23.5c-.8.8-2,1.2-3.2,1.2s-2.5-.4-3.4-1.3c0,12.4,0,24.8,0,37.2s-3.1,2-3.1,0v-8.2c-.8.8-2,1.2-3.2,1.2s-2.5-.4-3.4-1.3c0,4.5.1,9,.2,13.5.4,3,1.6,5.1,3.6,7.4,2.6,3,6.7,7.7,6.7,11.9v6.2c0,.8-.7,1.5-1.5,1.5s-1.5-.7-1.5-1.5v-5.9c0-3.4-3.9-7.7-5.9-10.2-1.9-2.2-4.3-6-4.3-9,0-5.7-.2-11.2-.2-17s.9-3.8,2.4-4.9c.8-2.6,2.2-5.7,3.2-7.7.8-1.7.9-1.7,1.7,0,.7,1.5,1.7,3.6,2.5,5.6v-21.9c0-2,.9-3.8,2.4-4.9.8-2.6,2.2-5.7,3.2-7.7.8-1.7.9-1.7,1.7,0,.8,1.7,2,4.3,2.8,6.6.4-1.1,1.1-2.1,2-2.8.8-2.6,2.2-5.7,3.2-7.7.8-1.7.9-1.7,1.7,0,1,2,2.4,5,3.2,7.6,1.2,1,2.1,2.5,2.3,4.2.8-2.1,1.8-4.2,2.5-5.7.8-1.7.9-1.7,1.7,0,1,2,2.4,5,3.2,7.6,1.2,1,2,2.3,2.3,3.9.8-2.1,1.8-4.3,2.6-5.8.8-1.7.9-1.7,1.7,0,1,2,2.4,5,3.2,7.6h0ZM189.8-83.1l9.1,5.2c3.3,1.9,6.5-2.9,3-5.2l-9.9-6.5-7.8-.8-5.3,4.6v2c-.1,0,1-1,1-1,2.5-2.2,6.2-2.4,8.6,0,.5.5.9,1.1,1.2,1.7h0ZM184.3-34.5c.8-.6,1.8-.6,2.3.3l4.7,7.2,4.8-17.8c.4-1.6,2.1-2.6,3.7-2.1l10,2.7c1.6.4,2.6,2.1,2.1,3.7l-4.8,18,2.9.8,4.8-18c.3-1.1.3-2.1,0-3.1,1.4.5,2.3,2.1,1.9,3.6l-4.8,18,6.8,1.8c.8.2,1.3,1,1.1,1.9,0,.7-1.2,1.3-1.9,1.1l-27.6-7.4c-.6-.2-.8-.2-1.1-.8l-4.2-6.4-8.5,7.3,3.2,4.9c1.1,1.7-1.5,3.4-2.6,1.7l-3-4.6-5.2,4.5c-1.5,1.3-3.6-1-2-2.3l7.5-6.4-3.8-3.2-8.7,7.4,1.9,3c1.1,1.7-1.5,3.4-2.6,1.7l-1.7-2.6-3.5,2.9c-1.5,1.3-3.6-1-2-2.3,2.8-2.4,5.5-4.7,8.3-7.1-1.7,0-6.5.3-6.5.3,0,0-16,6.3-23.8,9.5-1.9.8-2.7-2.2-.8-2.9l6.4-2.6-4.8-18.1c-.4-1.5.4-3.1,1.9-3.6-.3,1-.3,2,0,3.1l4.8,17.9,2.9-1.1-4.7-17.5c-.4-1.6.5-3.3,2.1-3.7l10-2.7c1.6-.4,3.3.5,3.7,2.1v.4c.1,0,.3,16.8.3,16.8l1.5-.6c3.6-.2,7.2-.3,10.9-.4l3.3-2.8c1-.8,1.5-.7,2.4.1l4.9,4.1c7.7-6.6,7.1-6.1,7.5-6.4h0ZM142.1-36.8c.2.8,1.1,1.3,1.9,1.1l2-.5,1.6,6.1c.2.8,1.1,1.3,1.9,1.1.8-.2,1.3-1.1,1.1-1.9l-1.7-6.2,2-.5c.8-.2,1.3-1.1,1.1-1.9-.2-.8-1.1-1.3-1.9-1.1l-2,.5-.5-2c-.2-.8-1.1-1.3-1.9-1.1-.8.2-1.3,1.1-1.1,1.9l.5,1.9-2,.5c-.8.2-1.3,1.1-1.1,1.9h0ZM207.4-36c-.2.8-1.1,1.3-1.9,1.1l-2-.5-1.6,6.2c-.2.8-1.1,1.3-1.9,1.1-.8-.2-1.3-1.1-1.1-1.9l1.7-6.2-2-.5c-.8-.2-1.3-1-1.1-1.9.2-.8,1.1-1.3,1.9-1.1l2,.5.5-2c.2-.8,1.1-1.3,1.9-1.1.8.2,1.3,1.1,1.1,1.9l-.5,2,2,.5c.8.2,1.3,1.1,1.1,1.9h0ZM179.6-34.5l-5.4-30.7c-.1-.7.2-1.2.6-1.5l11.6-11.7c1.2-1.2,1.2-3.1,0-4.3-1.2-1.2-3-1.1-4.3,0-2.9,2.6-5.8,5.1-8.7,7.7-1.5,1.6-3.7-1.1-1.9-2.3l4-3.6.3-5.3c-.1-.5,0-1,.5-1.5l10.4-9.1c.4-.4,1-.5,1.4-.3l6.7.6c.4,0,.7.2.9.4l10.1,5.9c3.3,1.9,6.5-3,3-5.3l-9.9-6.5-16.6-1.6-14.8,12.8-11.4,21.2.4,37.4c2.7,0,5.5-.2,8.2-.3l2.5-2.2c2.1-1.8,4.3-1.6,6.3.1l2.9,2.5c.9-.8,1.9-1.7,2.9-2.5h0ZM178.6-66.2l-1.2,1.3.4,2.4,3.7,1.8c2.2,1,3.8-2.3,1.6-3.3l-4.4-2.1ZM188.3-76l-4.6,4.7,5.2,2.7c3.4,1.8,6.4-3.1,2.8-5.3l-3.4-2.1ZM-347.4,54.1c5.2,5.9,13.3,9.7,22.4,9.7s4.2-.2,6.2-.6l6.2,11.5c-2.6,3.4-5.9,6.3-9.9,8.6-8.5,4.9-18.2,5.8-26.4,3.2-.6-.2-1.2-.8-1.2-1.5v-29.9c0-1.4,1.9-2,2.7-1h0ZM-315.8,62.5l4.9-4.8c.8-.8,1.9-.7,2.5.2l1.5,2.6c15.2-10.1,31.6-25.5,39.2-42.5,1.9-5.3,9.7-1.8,7.4,3.1-6.7,15.1-21.7,32.5-42.6,46.4l2.2,3.7c.6,1.1-.2,2.3-1.4,2.3h-7.7c0,0-5.9-11-5.9-11ZM-319,46.1c.8,0,1.5.7,1.5,1.5v2.6h2.6c.8,0,1.5.7,1.5,1.5s-.7,1.5-1.5,1.5h-2.6v2.7c0,.8-.7,1.5-1.5,1.5s-1.5-.7-1.5-1.5v-2.7h-2.6c-.8,0-1.5-.7-1.5-1.5s.7-1.5,1.5-1.5h2.6v-2.6c0-.8.7-1.5,1.5-1.5ZM-344.5,39.9c.8,0,1.5.7,1.5,1.5v2.7h2.6c.8,0,1.5.7,1.5,1.5s-.7,1.5-1.5,1.5h-2.6v2.6c0,.8-.7,1.5-1.5,1.5s-1.5-.7-1.5-1.5v-2.6h-2.6c-.8,0-1.5-.7-1.5-1.5s.7-1.5,1.5-1.5h2.6v-2.7c0-.8.7-1.5,1.5-1.5ZM-297.7,28.3c.8,0,1.5.7,1.5,1.5v2.6h2.6c.8,0,1.5.7,1.5,1.5s-.7,1.5-1.5,1.5h-2.6v2.6c0,.8-.7,1.5-1.5,1.5s-1.5-.7-1.5-1.5v-2.6h-2.7c-.8,0-1.5-.7-1.5-1.5s.7-1.5,1.5-1.5h2.7v-2.6c0-.8.7-1.5,1.5-1.5ZM-274.2,65.1c.8,0,1.5.7,1.5,1.5v2.6h2.6c.8,0,1.5.7,1.5,1.5s-.7,1.5-1.5,1.5h-2.6v2.6c0,.8-.7,1.5-1.5,1.5s-1.5-.7-1.5-1.5v-2.6h-2.6c-.8,0-1.5-.7-1.5-1.5s.7-1.5,1.5-1.5h2.6v-2.6c0-.8.7-1.5,1.5-1.5ZM-302.6,76.3c.8,0,1.5.7,1.5,1.5v2.6h2.6c.8,0,1.5.7,1.5,1.5s-.7,1.5-1.5,1.5h-2.6v2.7c0,.8-.7,1.5-1.5,1.5s-1.5-.7-1.5-1.5v-2.7h-2.6c-.8,0-1.5-.7-1.5-1.5s.7-1.5,1.5-1.5h2.6v-2.6c0-.8.7-1.5,1.5-1.5ZM-318.3,93.4c.8,0,1.5.7,1.5,1.5v2.6h2.6c.8,0,1.5.7,1.5,1.5s-.7,1.5-1.5,1.5h-2.6v2.6c0,.8-.7,1.5-1.5,1.5s-1.5-.7-1.5-1.5v-2.6h-2.7c-.8,0-1.5-.7-1.5-1.5s.7-1.5,1.5-1.5h2.7v-2.6c0-.8.7-1.5,1.5-1.5ZM89.3,23.8c.8,0,1.5.7,1.5,1.5v2.7h2.6c.8,0,1.5.7,1.5,1.5s-.7,1.5-1.5,1.5h-2.6v2.6c0,.8-.7,1.5-1.5,1.5s-1.5-.7-1.5-1.5v-2.6h-2.6c-.8,0-1.5-.7-1.5-1.5s.7-1.5,1.5-1.5h2.6v-2.7c0-.8.7-1.5,1.5-1.5ZM19.1,77.7c-5.2.5-9.2,4.8-9.2,10.1s4.5,10.1,10.1,10.1h17.6c-.2-.9-.3-1.8-.3-2.8,0-6.2,4.4-11.5,10.3-12.8.2-1.2.6-2.3,1.1-3.3-1.3-.7-2.8-1.2-4.4-1.3h-.4v-.2c-.3-6.4-5.5-11.5-11.9-11.6-6.4,0-11.7,5.2-12,11.6v.2c-.3,0-.6,0-.8,0h0ZM52.9,58.1c-4.2-5.2-6.5-12.1-5.5-19.7.5-3.8,1.8-7.3,3.7-10.4,1.2-1.6-.8-3.8-2.5-2.8-10.5,3.6-18.7,13-20.3,24.8-.6,4.5-.2,8.9,1.1,13,.8-.1,1.6-.2,2.5-.2,7.2,0,13.2,5.3,14.6,12.1,1.3.3,2.5.7,3.6,1.4h0c2.7-3.7,7.1-6.2,12.1-6.2,6,0,11.1,3.6,13.4,8.7,3.1-2.2,5.8-4.8,7.9-8,1.5-1.4-.1-3.9-2-3.1-3.5,1-7.2,1.4-11,.8-7.6-1-13.6-5-17.6-10.4h0ZM49.4,85c-5.2.5-9.2,4.8-9.2,10.1s4.5,10.1,10.1,10.1h23.7c5.6,0,10.1-4.5,10.1-10.1s-4.2-9.8-9.5-10.1h-.4c-.3-6.5-5.3-11.7-11.9-11.8-6.6,0-11.7,5.3-12,11.8-.3,0-.6,0-.8,0h0ZM68.8,44.1c.8,0,1.5.7,1.5,1.5v2.6h2.7c.8,0,1.5.7,1.5,1.5s-.7,1.5-1.5,1.5h-2.7v2.6c0,.8-.7,1.5-1.5,1.5s-1.5-.7-1.5-1.5v-2.6h-2.6c-.8,0-1.5-.7-1.5-1.5s.7-1.5,1.5-1.5h2.6v-2.6c0-.8.7-1.5,1.5-1.5ZM94.5,50.2c.8,0,1.5.7,1.5,1.5v2.6h2.6c.8,0,1.5.7,1.5,1.5s-.7,1.5-1.5,1.5h-2.6v2.6c0,.8-.7,1.5-1.5,1.5s-1.5-.7-1.5-1.5v-2.6h-2.6c-.8,0-1.5-.7-1.5-1.5s.7-1.5,1.5-1.5h2.6v-2.6c0-.8.7-1.5,1.5-1.5ZM68.1,14.9c.8,0,1.5.7,1.5,1.5v2.7h2.6c.8,0,1.5.7,1.5,1.5s-.7,1.5-1.5,1.5h-2.6v2.6c0,.8-.7,1.5-1.5,1.5s-1.5-.7-1.5-1.5v-2.6h-2.6c-.8,0-1.5-.7-1.5-1.5s.7-1.5,1.5-1.5h2.6v-2.7c0-.8.7-1.5,1.5-1.5ZM-287.7,158.8h6.1c4.4,0,8,3.6,8,8v3.1c-8.7,4-16.9,4.6-26.2,2.6-7.5-1.6-15.2-4.8-22.8-5-5-.1-9.5,1.1-13.7,3.6v-4.3c0-4.4,3.6-8,8-8h6.1c.8,0,1.5-.7,1.5-1.5v-9.2h31.5v9.2c0,.8.7,1.5,1.5,1.5h0ZM-273.6,173.1v44c0,4.4-3.6,8-8,8h-46.8c-4.4,0-8-3.6-8-8v-42.5c4.1-2.9,8.6-4.3,13.6-4.2,7.3.2,15.1,3.4,22.3,4.9,9.5,2.1,17.8,1.6,26.9-2.2h0ZM-284.4,145h-41.2c-.5,0-1-.4-1-1v-8.1c0-.5.4-1,1-1h41.2c.5,0,1,.4,1,1v8.1c0,.5-.4,1-1,1ZM-316.2,188.8c2.2-3.8.9-8.6-2.9-10.7-3.7-2.2-8.5-.9-10.7,2.9-2.2,3.8-.9,8.6,2.9,10.7,3.7,2.2,8.5.9,10.7-2.9ZM-327.3,182.5c1.3-2.3,4.3-3.1,6.6-1.8,2.3,1.3,3.1,4.3,1.8,6.6-1.3,2.3-4.3,3.1-6.6,1.8-2.3-1.4-3.1-4.3-1.8-6.6h0ZM-324.4,182.5c-.4.7-.2,1.6.6,2,.7.4,1.6.2,2-.6.4-.7.2-1.6-.6-2-.7-.4-1.6-.2-2,.6ZM-281.8,181.9c-3.1-3.1-8-3.1-11.1,0s-3.1,8,0,11.1,8,3.1,11.1,0,3.1-8,0-11.1ZM-290.8,190.9c-1.9-1.9-1.9-5,0-6.9,1.9-1.9,5-1.9,6.9,0,1.9,1.9,1.9,5,0,6.9-1.9,1.9-5,1.9-6.9,0ZM-290,188.1c.6.6,1.5.6,2.1,0,.6-.6.6-1.5,0-2.1-.6-.6-1.5-.6-2.1,0-.6.6-.6,1.5,0,2.1ZM-282.1,205.5c-3.1-3.1-8-3.1-11.1,0-3.1,3.1-3.1,8,0,11.1,3.1,3.1,8,3.1,11.1,0s3.1-8,0-11.1ZM-291,214.4c-1.9-1.9-1.9-5,0-6.9,1.9-1.9,5-1.9,6.9,0,1.9,1.9,1.9,5,0,6.9-1.9,1.9-5,1.9-6.9,0ZM-290.2,211.7c.6.6,1.6.6,2.1,0,.6-.6.6-1.5,0-2.1-.6-.6-1.5-.6-2.1,0-.6.6-.6,1.5,0,2.1ZM-311.8,203.1c2.2,3.7,7,5,10.7,2.9,3.7-2.2,5-7,2.9-10.7-2.2-3.7-7-5-10.7-2.9-3.7,2.1-5,7-2.9,10.7h0ZM-300.8,196.7c1.3,2.3.5,5.3-1.8,6.6-2.3,1.3-5.3.5-6.6-1.8-1.4-2.3-.6-5.3,1.8-6.6,2.3-1.3,5.3-.5,6.6,1.8h0ZM-302.4,199.2c-.4-.7-1.3-1-2-.6-.7.4-1,1.3-.6,2,.4.7,1.3,1,2,.6.7-.4,1-1.3.6-2ZM-312.3,213c0-4.3-3.5-7.8-7.8-7.8s-7.9,3.5-7.9,7.8,3.5,7.9,7.9,7.9,7.8-3.5,7.8-7.9ZM-320.1,208.2c2.7,0,4.9,2.2,4.9,4.9s-2.2,4.9-4.9,4.9-4.9-2.2-4.9-4.9,2.2-4.9,4.9-4.9ZM-318.8,210.7c-.8,0-1.5.7-1.5,1.5s.7,1.5,1.5,1.5,1.5-.7,1.5-1.5-.7-1.5-1.5-1.5ZM-165.2-311v-2c0-.8.7-1.5,1.5-1.5h2.5v-2.7c0-2,3.1-2,3.1,0v2.5h1c2-.1,2.2,2.9.1,3l-5.1.2v1.9c0,.9-.5,1.6-1.4,1.6l-3.2.2-.7,6.3h16.5v-37.5h-32.5v20.1l4.8,2.2h0s2.9-3.1,2.9-3.1l-1-.4c-.3,0-.5-.3-.7-.5l-2.3-2.9c-1.2-1.6,1.2-3.5,2.4-1.9l2.1,2.6c2.1.9,4,1.7,6.2,2.6l-.6-3.8c-.3-2,2.7-2.5,3-.5l1,6.5c.2,1.2-1,2.2-2.1,1.7l-4.9-2.1c0,2.7-.1,5.3-.2,8,2.5-.2,5-.4,7.6-.5h0ZM-149.6-345.1h-70.8c-2.6,0-4.8,2.1-4.8,4.7v80.7c0,2.6,2.2,4.7,4.8,4.7h70.8c2.6,0,4.7-2.2,4.7-4.7v-80.7c0-2.6-2.1-4.7-4.7-4.7h0ZM-149.6-257.9h-70.8c-.9,0-1.7-.8-1.7-1.7v-80.7c0-.9.8-1.7,1.7-1.7h70.8c.9,0,1.7.8,1.7,1.7v80.7c0,.9-.8,1.7-1.7,1.7h0ZM-219-339h32.5v37.5h-32.5v-37.5ZM-150.9-298.5v37.5h-32.5v-37.5h32.5ZM-196.9-279.1h-2c-.8,0-1.5.7-1.5,1.5v2.5h-2.7c-2,0-2,3.1,0,3.1h2.5v1c-.1,2,2.9,2.2,3,.1l.2-5.1h1.9c.9,0,1.6-.5,1.6-1.4l.2-3.2,7.3-.9v20.5h-32.5v-37.5h13.1c.8,1.4,2.6,4.6,3.4,6l-3.1,2.9-.4-1c-.1-.3-.3-.5-.5-.7l-2.9-2.3c-1.6-1.2-3.5,1.2-1.9,2.4l2.6,2.1c.9,2.1,1.7,4.1,2.6,6.2l-3.8-.6c-2-.3-2.5,2.7-.5,3l6.5,1c1.2.2,2.2-.9,1.7-2.1l-2.1-4.9c2.7,0,5.3-.1,8-.2-.2,2.5-.3,5.1-.5,7.6h0ZM-186.5-284.6l-7,.8c0-1.4.2-2.7.3-4,.1-1.5-1.1-2-2.4-1.9-1.8,0-3.7,0-5.5.1l1.8-1.8c.2-.2.4-.5.4-.8.2-.5-.1-1-.4-1.5l-2.8-4.8h15.6v13.9s0,0,0,0ZM-170.6-301.5l.7-6.1c-1.4.1-2.8.2-4.2.3-1.9.2-1.7-1.5-1.8-2.5,0-1.8,0-3.6.1-5.5l-1.8,1.9c-.7.8-1.5.4-2.3,0l-3.6-2v13.8h12.9ZM-146.5-225.1v68.7h-67.8v-68.7h67.8ZM-162.5-178.9h-11l-5.5,9.6c-.3.5-.8.8-1.4.8-.6,0-1.1-.3-1.4-.8l-5.5-9.6h-11c-.3,0-.6,0-.9-.2-.7-.4-1-1.4-.6-2.1l5.5-9.6-5.5-9.6c-.4-.7-.2-1.7.6-2.1.3-.2.6-.2.9-.2h11l5.5-9.5c.3-.5.8-.8,1.4-.8s1.1.3,1.4.8l5.5,9.5h11c.3,0,.6,0,.9.2.7.4,1,1.4.6,2.1l-5.5,9.6,5.5,9.6c.4.7.2,1.7-.6,2.1-.3.2-.6.2-.9.2ZM-195.8-199.6h6.7l-3.3,5.8-3.4-5.8ZM-185.5-199.6h10.2l5.1,8.9-5.1,8.8h-10.2l-5.1-8.8,5.1-8.9ZM-171.7-199.6h6.7l-3.4,5.8-3.3-5.8ZM-177-178.9l-3.4,5.8-3.4-5.8h6.7ZM-195.8-181.9h6.7l-3.3-5.8-3.4,5.8ZM-171.7-181.9h6.7l-3.4-5.8-3.3,5.8ZM-177-202.7l-3.4-5.8-3.4,5.8h6.7ZM-217.3-224.6v68.6h0c-2.3.6-4.3,1.9-5.9,3.6l-.2.2v-63.7c0-3.9,2.4-7.3,6-8.7h.2ZM-205.8-153.4h10.8v7.9s-4.3-4.3-4.3-4.3c-.6-.6-1.5-.6-2.1,0l-4.3,4.3v-7.9ZM-192.1-153.4h45.6v18.6h-67.7c-5.1,0-9.3-4.2-9.3-9.3s4.2-9.3,9.3-9.3h5.4v11.4c0,1.3,1.6,2.1,2.6,1.1l5.8-5.8,5.8,5.8c.9.9,2.4.3,2.5-1v-11.5ZM-180.4-218.2c-15.1,0-27.4,12.3-27.4,27.4s12.3,27.4,27.4,27.4,27.4-12.3,27.4-27.4-12.3-27.4-27.4-27.4h0ZM-73.7-183.6l4.9-2.9-1.1-2.1s-5.8-2-8.5-3c-1.9-.7-.9-3.6,1-2.9l5.3,1.9-3.1-5.6c0,0-13.2-8.1-14.6-8.9l-8.6-1.4-8.8,1.4c-2,.3-2.5-2.7-.5-3l7.3-1.2-2.5-7.3c-.6-1.9,2.2-2.9,2.9-1l2.8,8.2,7.1,1.2,4.5-13.8c.6-1.9,3.6-1,2.9.9l-1.5,4.6,11.4-2.4c2-.4,2.6,2.6.6,3l-13.1,2.8-2,6.2,12.2,7.4,5.3-13.6c.2-.6.6-.8,1.1-1l3.8-1.5-.6-5.8c-.2-2,2.8-2.3,3.1-.3l.5,4.9,3.2-1.3c1.9-.7,3,2.1,1.1,2.9l-9.6,3.7-5.5,13.9,6.5,12h3.1l5.2-12.9c.2-.2.1-.4.4-.6l2.8-3-1.7-7.1c-.5-2,2.5-2.7,3-.7l1.2,5.1,7.3-7.7-2.2-8.7c-.5-2,2.5-2.7,2.9-.8l.8,3,3.2-2.6c1.6-1.3,3.5,1,2,2.4l-4.3,3.5.5,2.1c5.2-.2,10.4-.3,15.7-.5,2,0,2.2,3,.1,3.1h-2.9c0,0,6.7,4,6.7,4,1.7,1,.2,3.7-1.6,2.7l-10.9-6.4c-2.6,0-5.2.2-7.8.3l-3.1,3.2,8.1.4c2,0,1.9,3.1-.2,3l-10.7-.5c-2.2,2.4-4.5,4.7-6.7,7.1l-5.2,12.8,3.8,2.7,7.3-4.2,2.9-8.5c.7-1.9,3.5-.8,2.9,1l-1.8,5.2,11.8-6.9,5.3-4.5c1.5-1.3,3.5,1,2,2.3l-3.1,2.6,4.3.8c2,.4,1.4,3.4-.6,3-.6-.1-6.9-1.3-6.9-1.3l-8.2,4.7,5.9,5.4c1.5,1.4-.6,3.6-2.1,2.2l-6.6-6-11.5,6.7v18.5c0,13.2,10.5,24.1,23.5,24.7.8,0,1.6.7,1.6,1.6s-.7,1.5-1.5,1.5h-68c-.8,0-1.5-.6-1.5-1.5s.7-1.5,1.5-1.6c13-.6,23.5-11.5,23.5-24.7v-18.5l-11.5-6.7-6.7,6c-1.5,1.4-3.6-.9-2.1-2.2l5.9-5.4-8.1-4.7c-.6-.1-5.9,1-7,1.2-2,.4-2.6-2.6-.6-3l4.3-.8-3.1-2.6c-1.6-1.3.5-3.6,2-2.3l5.3,4.5,11.8,6.9-1.8-5.2c-.6-1.9,2.2-2.9,2.9-1l2.9,8.5,7.4,4.3ZM-62.5-153.5c.8,0,1.5-.7,1.5-1.5v-2.9c0-.8-.7-1.5-1.5-1.5s-1.5.7-1.5,1.5v2.9c0,.8.7,1.5,1.5,1.5ZM-62.5-164.1c.8,0,1.5-.7,1.5-1.5v-12.4c0-.8-.7-1.5-1.5-1.5s-1.5.7-1.5,1.5v12.4c0,.8.7,1.5,1.5,1.5ZM-67.5-179.5c.8,0,1.5.7,1.5,1.5v2.9c0,.8-.7,1.5-1.5,1.5s-1.5-.7-1.5-1.5v-2.9c0-.8.7-1.5,1.5-1.5ZM-67.5-168.9c.8,0,1.5.7,1.5,1.5v12.4c0,.8-.7,1.5-1.5,1.5s-1.5-.7-1.5-1.5v-12.4c0-.8.7-1.5,1.5-1.5ZM-188.3,77.4c5-4.4,9.9-5.1,14.4-4.4l-3.3,12.3c-.8.1-1.6.4-2.4.9l-8.7-8.7ZM-223.4,35.7c5-4.4,9.9-5.1,14.4-4.4l-3.3,12.3c-.8.1-1.6.4-2.4.9l-8.7-8.7ZM-216.9,46.6c-.6,1-.9,2-1.1,3.1l-12.1,3.2c-.5-5.6.9-11,4.4-15.1l8.7,8.7ZM-217.8,52.9c0,.4.2.8.3,1.2,2.9,11-9.3,12.3-11.2,4.8-.3-1-.6-1.9-.8-2.9l11.8-3.2ZM-206,31.8c3.6.9,7,2.3,10,2.8l-3.2,11.7c-3.7-.9-7-2.3-10-2.7l3.1-11.8ZM-192.8,34.6c.8-.1,1.6-.4,2.4-.9l8.7,8.7c-5,4.4-9.9,5.1-14.4,4.4l3.3-12.3ZM-188.3,31.5c.6-1,.9-2,1-3.1l12.1-3.2c.5,5.6-1,11-4.4,15.1l-8.7-8.7ZM-187.3,25.3c0-.4-.2-.8-.2-1.2-3.1-11.4,9.4-11.7,11.2-4.9.3,1,.6,2,.8,2.9l-11.8,3.2ZM-205.9,56.7c5-4.4,9.9-5.1,14.4-4.4l-3.3,12.3c-.8.1-1.6.4-2.4.9l-8.7-8.7ZM-199.3,67.6c-.6,1-.9,2-1.1,3.1l-12.1,3.3c-.5-5.6.9-11,4.4-15.2l8.7,8.7ZM-200.2,73.9c0,.4.2.8.3,1.2,2.9,11-9.2,12.3-11.2,4.9-.3-1-.6-1.9-.8-2.9l11.8-3.1ZM-188.5,52.9c3.6.9,7,2.3,10,2.8l-3.1,11.7c-3.7-.9-7-2.3-10-2.7l3.2-11.8ZM-175.3,55.7c.8-.1,1.6-.4,2.4-.9l8.7,8.7c-5,4.4-9.9,5.1-14.4,4.4l3.3-12.3ZM-170.7,52.6c.6-1,.9-2,1-3.1l12.1-3.2c.5,5.6-1,11-4.4,15.1l-8.7-8.7ZM-169.8,46.3c0-.4-.2-.8-.2-1.2-3.1-11.4,9.4-11.7,11.2-4.9.3,1,.6,1.9.8,2.9l-11.8,3.1ZM-181.7,88.3c-.6,1-.9,2-1.1,3.2l-12.1,3.3c-.5-5.6.9-11,4.4-15.2l8.7,8.7ZM-182.6,94.6c0,.4.2.8.3,1.2,2.9,11-9.3,12.3-11.2,4.9-.3-1-.6-1.9-.8-2.9l11.8-3.1ZM-170.9,73.5c3.6.9,7,2.3,10,2.8l-3.2,11.7c-3.7-.9-7-2.3-10-2.7l3.2-11.8ZM-157.7,76.3c.8-.1,1.6-.4,2.4-.9l8.7,8.7c-5,4.4-9.9,5.1-14.4,4.4l3.3-12.3ZM-153.1,73.3c.6-1,.9-2,1-3.1l12.1-3.2c.5,5.6-1,11-4.4,15.1l-8.7-8.7ZM-152.2,67c0-.4-.2-.8-.2-1.2-3.1-11.4,9.4-11.7,11.2-4.9.3,1,.6,2,.8,2.9l-11.8,3.2ZM134.7,136.7h3c.5-1.1,1.6-1.9,2.8-1.9h69.1c1.2,0,2.3.8,2.8,1.9h3c2.6,0,4.8,2.2,4.8,4.8s-2.2,4.8-4.8,4.8h-3c-.5,1.1-1.6,1.9-2.8,1.9h-.7v32.9c0,.4-.2.8-.4,1.1l-.9.9v9.8c0,.8-.7,1.5-1.5,1.5s-1.5-.7-1.5-1.5v-6.8l-4.8,4.8v9.7c0,.8-.7,1.5-1.5,1.5s-1.5-.7-1.5-1.5v-6.7l-4.7,4.7v9.7c0,.8-.7,1.5-1.5,1.5s-1.5-.7-1.5-1.5v-6.7l-4.7,4.7v9.8c0,.8-.7,1.5-1.5,1.5s-1.5-.7-1.5-1.5v-6.8l-4.8,4.8v9.5c0,.8-.7,1.5-1.5,1.5s-1.5-.7-1.5-1.5v-9.5l-4.7-4.8v6.8c0,.8-.7,1.5-1.5,1.5s-1.5-.7-1.5-1.5v-9.8l-4.8-4.7v6.7c0,.8-.7,1.5-1.5,1.5s-1.5-.7-1.5-1.5v-9.7l-4.8-4.7v6.7c0,.8-.7,1.5-1.5,1.5s-1.5-.7-1.5-1.5v-9.7l-4.7-4.8v6.8c0,.8-.7,1.5-1.5,1.5s-1.5-.7-1.5-1.5v-9.8l-.9-.9c-.3-.3-.4-.7-.4-1.1v-32.9h-.7c-1.2,0-2.3-.8-2.8-1.9h-3c-2.6,0-4.8-2.1-4.8-4.8,0-2.6,2.2-4.8,4.8-4.8h0ZM175,180.2l-1.4,2c-1.2,1.6-3.6-.1-2.5-1.7l2.6-3.7c.6-.8,1.9-.8,2.5,0l2.6,3.7c1.1,1.6-1.3,3.3-2.5,1.7l-1.4-2ZM187.2,170.3c0,2.9-2.4,5.3-5.3,5.3s-5.3-2.4-5.3-5.3,2.4-5.3,5.3-5.3,5.3,2.4,5.3,5.3ZM168.1,175.6c-2.9,0-5.3-2.4-5.3-5.3s2.4-5.3,5.3-5.3,5.3,2.4,5.3,5.3-2.4,5.3-5.3,5.3ZM169.3,187.8c.8,0,1.5.7,1.5,1.5v1.6h2.7v-1.6c0-.8.7-1.5,1.5-1.5s1.5.7,1.5,1.5v1.6h2.7v-1.6c0-.8.7-1.5,1.5-1.5s1.5.7,1.5,1.5v1.6h5.1v-4.7l.6-.2c3.4-1,4.5-3.3,4.2-6.6,0-.9-.4-2.5-.2-3.3,1-2.5,1.6-5,1.6-7.7,0-10.2-8.3-18.6-18.6-18.6s-18.6,8.3-18.6,18.6.6,5.2,1.6,7.7c.3.8,0,2.4-.2,3.3-.3,3.4.9,5.7,4.2,6.6l.6.2v4.7h5.1v-1.6c0-.8.7-1.5,1.5-1.5h0ZM187.2,193.9h-5v3.1h1c1.9,0,3.5-1.4,4-3.1ZM179.2,197v-3.1h-2.7v3.1h2.7ZM173.5,197v-3.1h-2.7v3.1h2.7ZM167.8,197v-3.1h-5c.4,1.8,2.1,3.1,4,3.1h1Z"/>
</svg>