<?xml version="1.0" encoding="UTF-8"?>
<svg id="Layer_1" xmlns="http://www.w3.org/2000/svg" version="1.1" viewBox="0 0 110 135">
  <!-- Generator: Adobe Illustrator 29.1.0, SVG Export Plug-In . SVG Version: 2.1.0 Build 142)  -->
  <defs>
    <style>
      .st0 {
        fill-rule: evenodd;
      }
    </style>
  </defs>
  <path class="st0" d="M26.9,88.1h-6.2c-5.2,0-9.4-4.2-9.4-9.4v-28.1c0-2.5,1-4.9,2.7-6.6,1.8-1.8,4.1-2.7,6.6-2.7h23.2c1.8,0,3.5.5,5,1.4l3.1,1.9-8.8,8.4c-1.2,1.2-1.3,3.2,0,4.4,1.2,1.2,3.2,1.3,4.4,0l9.9-9.5,4.9,3.1-8.6,8.3c-1.2,1.2-1.3,3.2,0,4.4,1.2,1.2,3.2,1.3,4.4,0l9.7-9.4,3.1,1.9c.5.3,1.1.5,1.7.5h9.1c4.6,0,8.9,1.8,12.2,5,3.2,3.2,5,7.6,5,12.2v4.7c0,5.2-4.2,9.4-9.4,9.4h-6.2v9.4h9.4c1.7,0,3.1,1.4,3.1,3.1s-1.4,3.1-3.1,3.1H17.5c-1.7,0-3.1-1.4-3.1-3.1s1.4-3.1,3.1-3.1h9.4v-9.4ZM76.9,88.1h-43.8v9.4h43.8v-9.4ZM14.4,36.3v-10.7c0-5.2,4.2-9.4,9.4-9.4h15.6c5.2,0,9.4,4.2,9.4,9.4v10.2c-1.6-.5-3.2-.8-4.9-.8h-23.2c-2.2,0-4.3.5-6.2,1.3h0Z"/>
</svg>