<?xml version="1.0" encoding="UTF-8"?>
<svg id="Layer_1" xmlns="http://www.w3.org/2000/svg" version="1.1" viewBox="0 0 100 125">
  <!-- Generator: Adobe Illustrator 29.1.0, SVG Export Plug-In . SVG Version: 2.1.0 Build 142)  -->
  <path d="M50.4,31.5c-.6,1.4-7.8,17.7-7.8,17.7-.9,2-.2,4.5,1.8,5.7.6.3,1.2.5,1.8.6,0,0,.1,0,.2,0l12.4,2.4-9.1,8.2c-1.1,1-1.3,2.7-.4,4,1,1.3,2.8,1.6,4.1.6l15.7-11.7c0,0,.2-.1.3-.2.6-.5,1-1.2,1.2-2,0,0,0,0,0,0,.6-2-.5-4.1-2.5-4.8l-14.1-4.5,5.8-9.2,16.7,9.9c1,.5,2.2.3,2.9-.6.8-1,.6-2.4-.3-3.2,0,0-15.9-12.7-17.3-14-.9-.8-2.3-2.6-2.7-3.8-.5-1.2-8.6-23.1-8.6-23.1-.4-1.1-1.5-1.7-2.6-1.4-1.2.3-2,1.5-1.8,2.7,0,0,5,22.8,5.2,23.6.2.8,0,1.6-.6,3Z"/>
  <path d="M66.4,28.9c3.8.2,7.2-2.9,7.3-6.8.1-3.9-3-7.2-6.8-7.3-3.8,0-7.1,3.2-7.1,7.1,0,3.7,3,6.8,6.7,7Z"/>
  <path d="M40.5,41.6l1.7.4c.9.2,1.9-.3,2.2-1.1l3.6-9.2c.3-.8.5-2.3.3-3.2l-1.1-6.8c-.1-.9-1-1.4-1.8-1l-1.6.6c-.8.3-1.7,1.3-1.8,2.2l-2.8,16.1c-.2.9.4,1.8,1.3,2Z"/>
  <path d="M37.4,66.2l7.9,3.6c-9.4-9.9-18.1-19.1-18.4-19.5s-1.4-1.1-2.4-.2c-.8.8-.6,1.9,0,2.4.5.6,5.8,6.1,12.9,13.6Z"/>
  <path d="M74.1,94.2c-1.7,1.6-3,1.4-4,.9-1.5-.7-2.9-2.1-4-3.3-.7-.7-4.2-4.5-8.9-9.4l-7.9-3.6c7.2,7.6,13.5,14.2,14.4,15.2,1.2,1.3,2.9,3.1,5,4.1,1,.4,1.9.7,2.8.7,1.7,0,3.3-.7,4.8-2.1.7-.6.7-1.7,0-2.3-.6-.7-1.7-.7-2.3,0Z"/>
  <path d="M81.8,81.7c-.8-.4-1.8,0-2.2.8-1,2.2-2.3,2.4-3.4,2.3-1.6,0-3.5-.9-4.9-1.6l-52-23.4c-.8-.4-1.8,0-2.2.8-.4.8,0,1.8.8,2.2l52,23.4c1.7.7,3.9,1.8,6.2,1.9.1,0,.2,0,.3,0,2.8,0,4.9-1.5,6.2-4.3.4-.8,0-1.8-.8-2.2Z"/>
</svg>