<?xml version="1.0" encoding="UTF-8"?>
<svg id="Layer_1" xmlns="http://www.w3.org/2000/svg" version="1.1" viewBox="0 0 100 125">
  <!-- Generator: Adobe Illustrator 29.1.0, SVG Export Plug-In . SVG Version: 2.1.0 Build 142)  -->
  <path d="M77.6,58.1c-1.2,1.2-3.1,1.1-4.2,0l-10.6-10.8-6.5,1.7-19.1-5.1-2.4-11.2-4.5,8.1,1.7,8.7c.3,1.6-.7,3.2-2.4,3.5-1.6.3-3.2-.7-3.5-2.4l-1.9-9.7c-.1-.7,0-1.4.3-2l5.4-9.6c1-1.7,2.7-2.9,4.7-3l10.6-1c1.5-.1,2.9.9,3.2,2.3l3.5,15.3c.1.6.8,1,1.4.8l9.8-2.5c1-.3,2.1,0,2.9.8l11.8,12c1.2,1.2,1.1,3.1,0,4.2Z"/>
  <path d="M45.5,15.5c0,4.1-3.4,7.5-7.5,7.5s-7.5-3.4-7.5-7.5,3.4-7.5,7.5-7.5,7.5,3.4,7.5,7.5Z"/>
  <path d="M8.9,59.3l82.5,22.1c.3,0,.6.4.6.7v9.2c0,.4-.3.8-.8.8H8.8c-.4,0-.8-.3-.8-.8v-31.3c0-.5.5-.9.9-.7Z"/>
  <path d="M58.3,68.6l-38.6-10.3c-8.5-2.4-6.9-14.9,1.8-15.1l1.6,8c.6,3.2,3.9,5.4,7.1,4.7,3.2-.6,5.4-3.8,4.7-7l-.5-2.6,27.9,7.5c9.7,2.9,5.9,17.2-4,14.9Z"/>
</svg>